<?xml version="1.0" encoding="utf-8"?>
<!-- Generator: Adobe Illustrator 16.0.0, SVG Export Plug-In . SVG Version: 6.00 Build 0)  -->
<!DOCTYPE svg PUBLIC "-//W3C//DTD SVG 1.1//EN" "http://www.w3.org/Graphics/SVG/1.1/DTD/svg11.dtd">
<svg version="1.1" id="Calque_1" xmlns="http://www.w3.org/2000/svg" xmlns:xlink="http://www.w3.org/1999/xlink" x="0px" y="0px"
	 width="283.46px" height="283.46px" viewBox="0 0 283.46 283.46" enable-background="new 0 0 283.46 283.46" xml:space="preserve">
<path fill="#E61D42" d="M113.509,60.516V43.249h54.488v17.267H113.509z"/>
<path d="M104.348,148.569H81.582l-14.218-29.856h-6.672v29.856H41.008V68.404h31.75c5.75,0,10.674,1.201,14.776,3.602
	c4.101,2.401,7.224,5.562,9.366,9.484c2.143,3.923,3.214,8.156,3.214,12.701c0,5.022-1.27,9.319-3.811,12.893
	c-2.541,3.574-5.621,6.259-9.239,8.055L104.348,148.569z M80.431,94.219c0-1.425-0.34-2.758-1.021-4
	c-0.68-1.242-1.673-2.237-2.977-2.986c-1.305-0.75-2.821-1.124-4.549-1.124H60.692v16.165h11.192c1.728,0,3.244-0.374,4.549-1.123
	c1.304-0.749,2.297-1.735,2.977-2.96C80.09,96.968,80.431,95.643,80.431,94.219z"/>
<path d="M168.897,148.569H114.41V68.404h54.488v17.54h-34.803v13.416h29.745v17.54h-29.745v14.131h34.803V148.569z"/>
<path d="M242.08,113.545c0,6.598-0.596,11.931-1.786,16s-3.306,7.625-6.345,10.667c-2.16,2.199-4.478,3.978-6.95,5.333
	c-2.473,1.356-5.044,2.31-7.717,2.859c-2.674,0.55-5.549,0.824-8.624,0.824c-8.9,0-16.316-3.005-22.248-9.017
	c-3.517-3.519-5.752-7.514-6.703-11.986c-0.952-4.472-1.428-10.153-1.428-17.044v-2.694v-2.695c0-6.891,0.476-12.582,1.428-17.071
	c0.951-4.49,3.187-8.495,6.703-12.014c3.039-3.042,6.316-5.296,9.832-6.763c3.516-1.466,7.653-2.199,12.415-2.199
	c9.522,0,16.855,2.548,22.001,7.643c5.146,5.095,8.25,11.4,9.311,18.914h-19.848c-0.807-3.152-2.09-5.443-3.849-6.873
	c-1.76-1.43-4.309-2.145-7.644-2.145c-3.372,0-5.956,1.173-7.752,3.519c-0.659,0.844-1.201,1.878-1.622,3.106
	c-0.422,1.229-0.741,3.116-0.962,5.664c-0.22,2.548-0.33,6.186-0.33,10.914s0.11,8.376,0.33,10.941
	c0.221,2.566,0.54,4.472,0.962,5.718c0.421,1.247,0.963,2.291,1.622,3.134c1.76,2.273,4.344,3.409,7.752,3.409
	c3.85,0,6.781-1.063,8.798-3.189c2.016-2.016,3.024-4.857,3.024-8.523v-1.154h-11.822v-16.44h31.451V113.545z"/>
<path d="M95.496,239.107H41.008v-80.164h54.487v17.539H60.692v13.415h29.746v17.541H60.692v14.13h34.804V239.107z"/>
<path d="M172.938,239.107h-17.21l-25.676-40.302v40.302h-19.684v-80.164h17.216l25.67,40.302v-40.302h19.684V239.107z"/>
<path d="M242.08,176.482h-19.739v62.625h-19.685v-62.625h-19.738v-17.539h59.162V176.482z"/>
</svg>
