<?xml version="1.0" encoding="UTF-8" standalone="no"?>
<!-- Created with Inkscape (http://www.inkscape.org/) -->

<svg
   xmlns:dc="http://purl.org/dc/elements/1.1/"
   xmlns:cc="http://creativecommons.org/ns#"
   xmlns:rdf="http://www.w3.org/1999/02/22-rdf-syntax-ns#"
   xmlns:svg="http://www.w3.org/2000/svg"
   xmlns="http://www.w3.org/2000/svg"
   xmlns:sodipodi="http://sodipodi.sourceforge.net/DTD/sodipodi-0.dtd"
   xmlns:inkscape="http://www.inkscape.org/namespaces/inkscape"
   width="8.5795555mm"
   height="8.3650665mm"
   viewBox="0 0 30.4 29.639999"
   id="svg3397"
   version="1.1"
   inkscape:version="0.91 r13725"
   sodipodi:docname="dessin.svg">
  <defs
     id="defs3399" />
  <sodipodi:namedview
     id="base"
     pagecolor="#ffffff"
     bordercolor="#666666"
     borderopacity="1.0"
     inkscape:pageopacity="0.0"
     inkscape:pageshadow="2"
     inkscape:zoom="20.479082"
     inkscape:cx="15.2"
     inkscape:cy="14.82"
     inkscape:document-units="px"
     inkscape:current-layer="layer1"
     showgrid="false"
     fit-margin-top="0"
     fit-margin-left="0"
     fit-margin-right="0"
     fit-margin-bottom="0"
     inkscape:window-width="1301"
     inkscape:window-height="744"
     inkscape:window-x="65"
     inkscape:window-y="24"
     inkscape:window-maximized="1" />
  <metadata
     id="metadata3402">
    <rdf:RDF>
      <cc:Work
         rdf:about="">
        <dc:format>image/svg+xml</dc:format>
        <dc:type
           rdf:resource="http://purl.org/dc/dcmitype/StillImage" />
        <dc:title></dc:title>
      </cc:Work>
    </rdf:RDF>
  </metadata>
  <g
     inkscape:label="Calque 1"
     inkscape:groupmode="layer"
     id="layer1"
     transform="translate(-419.08571,-386.11363)">
    <path
       inkscape:connector-curvature="0"
       d="m 419.58571,411.37363 q 0,-0.76 0,-1.68 0.04,-0.92 0.16,-3.32 0.16,-2.4 0.4,-4.48 0.24,-2.12 0.76,-4.68 0.52,-2.6 1.2,-4.4 0.72,-1.8 1.88,-3.04 1.16,-1.24 2.6,-1.24 1.92,0 3.64,0.6 1.72,0.6 3,1.56 1.28,0.92 2.32,1.88 1.08,0.92 2.16,1.8 1.12,0.84 2.04,1.16 1,0.36 1.92,0.36 4.24,0 4.24,-8.48 l 0,-0.4 1.16,-0.4 q 0.28,0 0.52,0.32 0.24,0.32 0.24,0.84 0,0.24 0.56,7 0.6,6.76 0.6,11.04 0,9.44 -2.68,9.44 -1.52,0 -6.84,-1.92 -5.28,-1.96 -7.08,-1.96 -0.28,-0.04 -0.72,-0.04 -1.72,0 -1.72,1.16 0,0.44 0.52,1.6 0.04,0.04 0.04,0.12 0,0.64 -5.08,0.64 -2.72,0 -4.28,-0.88 -1.56,-0.88 -1.56,-2.6 z"
       style="fill:#ffd700;fill-opacity:1;stroke:#000000;stroke-width:1px;stroke-linecap:butt;stroke-linejoin:miter;stroke-opacity:1"
       id="path3367" />
  </g>
</svg>
