<?xml version="1.0" encoding="UTF-8" standalone="no"?>
<!-- Created with Inkscape (http://www.inkscape.org/) -->

<svg
   xmlns:dc="http://purl.org/dc/elements/1.1/"
   xmlns:cc="http://creativecommons.org/ns#"
   xmlns:rdf="http://www.w3.org/1999/02/22-rdf-syntax-ns#"
   xmlns:svg="http://www.w3.org/2000/svg"
   xmlns="http://www.w3.org/2000/svg"
   xmlns:sodipodi="http://sodipodi.sourceforge.net/DTD/sodipodi-0.dtd"
   xmlns:inkscape="http://www.inkscape.org/namespaces/inkscape"
   width="768.72595"
   height="768.72595"
   id="svg2"
   version="1.1"
   inkscape:version="0.48.5 r10040"
   sodipodi:docname="logoArtwork.svg">
  <defs
     id="defs4" />
  <sodipodi:namedview
     id="base"
     pagecolor="#ffffff"
     bordercolor="#666666"
     borderopacity="1.0"
     inkscape:pageopacity="0.0"
     inkscape:pageshadow="2"
     inkscape:zoom="0.69999999"
     inkscape:cx="475.59947"
     inkscape:cy="27.513244"
     inkscape:document-units="px"
     inkscape:current-layer="layer1"
     showgrid="false"
     fit-margin-top="0"
     fit-margin-left="0"
     fit-margin-right="0"
     fit-margin-bottom="0"
     inkscape:window-width="1280"
     inkscape:window-height="747"
     inkscape:window-x="-4"
     inkscape:window-y="-4"
     inkscape:window-maximized="1" />
  <metadata
     id="metadata7">
    <rdf:RDF>
      <cc:Work
         rdf:about="">
        <dc:format>image/svg+xml</dc:format>
        <dc:type
           rdf:resource="http://purl.org/dc/dcmitype/StillImage" />
        <dc:title />
      </cc:Work>
    </rdf:RDF>
  </metadata>
  <g
     inkscape:label="Layer 1"
     inkscape:groupmode="layer"
     id="layer1"
     transform="translate(6.7486638,-278.08033)">
    <rect
       style="color:#000000;fill:#6d001d;fill-opacity:1;fill-rule:nonzero;stroke:none;stroke-width:1.00999999000000010;stroke-linecap:round;stroke-miterlimit:4;stroke-opacity:1;stroke-dasharray:none;marker:none;visibility:visible;display:inline;overflow:visible;enable-background:accumulate"
       id="rect3984"
       width="767.71594"
       height="767.71594"
       x="-6.2436638"
       y="278.58533" />
    <path
       style="color:#000000;fill:#ffff00;fill-opacity:1;fill-rule:nonzero;stroke:none;stroke-width:1.00999999;marker:none;visibility:visible;display:inline;overflow:visible;enable-background:accumulate"
       d="m 459.69051,982.85986 c -0.37234,-0.37234 -0.0592,-1.6224 0.69578,-2.77791 0.75502,-1.15553 2.57489,-5.92445 4.04416,-10.59762 2.05076,-6.5227 2.67138,-10.58261 2.67138,-17.47529 0,-9.79327 -0.51183,-11.29269 -7.2547,-21.25267 -2.16274,-3.19461 -3.57439,-5.81534 -3.137,-5.82384 0.43739,-0.008 0.3381,-0.34944 -0.22064,-0.75762 -4.07125,-2.97419 -13.11511,-17.93231 -15.66347,-25.90664 -1.85634,-5.80886 -0.789,-19.15032 2.0265,-25.33073 1.24613,-2.73542 2.37229,-5.44824 2.50258,-6.02848 0.13029,-0.58025 0.98549,-2.74503 1.90044,-4.81062 0.91495,-2.0656 1.66355,-4.36117 1.66355,-5.10127 0,-0.74011 0.37794,-1.77748 0.83986,-2.30529 1.40995,-1.61104 3.49993,-9.80274 3.64889,-14.30189 0.0774,-2.33798 0.0114,-4.12153 -0.14667,-3.96345 -0.15807,0.15806 -2.44977,-1.73855 -5.09266,-4.21471 -2.64289,-2.47616 -6.62354,-5.6886 -8.84587,-7.13876 -2.22234,-1.45016 -4.2679,-2.89219 -4.54569,-3.20451 -0.27779,-0.31232 -2.18631,-1.58925 -4.24116,-2.83763 -16.74005,-10.17006 -21.39214,-36.32839 -8.70757,-48.96199 1.77253,-1.7654 3.70648,-3.0583 4.29768,-2.8731 0.5912,0.18519 0.74993,0.0117 0.35274,-0.38546 -1.03683,-1.03683 8.31577,-11.67646 9.57818,-10.89625 0.58159,0.35944 0.75393,0.16729 0.38514,-0.42941 -0.36709,-0.59398 -0.30726,-1.23242 0.13296,-1.41877 0.44021,-0.18635 1.84151,-1.82151 3.11399,-3.63369 1.34512,-1.91563 2.80983,-3.01068 3.49904,-2.61597 0.652,0.3734 0.85796,0.31642 0.45768,-0.12663 -0.40027,-0.44305 0.28088,-2.22056 1.51366,-3.95003 2.22367,-3.11955 2.37973,-3.47273 2.62338,-5.93664 0.0694,-0.70231 2.05818,-2.11899 4.41941,-3.14816 7.40606,-3.22803 7.23396,-3.21144 5.49417,-0.52945 -0.86668,1.33604 -1.7701,4.7498 -2.00759,7.58613 -0.23875,2.8514 -1.32811,6.46434 -2.43662,8.08122 -1.10265,1.60834 -3.09686,4.62578 -4.43157,6.70542 -1.33472,2.07965 -2.76769,3.78428 -3.18438,3.78807 -0.41669,0.004 -0.75761,0.66617 -0.75761,1.47194 0,0.80577 -0.7955,1.92837 -1.76777,2.49466 -0.97227,0.5663 -1.37118,1.04346 -0.88646,1.06035 0.48471,0.0169 0.31956,0.70757 -0.367,1.53483 -0.68656,0.82725 -1.72159,1.21159 -2.30007,0.85407 -0.57847,-0.35752 -0.7755,-0.20302 -0.43784,0.34333 0.33766,0.54635 -0.66061,2.5485 -2.21838,4.44923 -5.23003,6.38144 -6.1291,12.59107 -3.05987,21.13353 2.46929,6.87265 8.19596,13.63105 14.16619,16.71837 1.61266,0.83394 2.93211,1.95915 2.93211,2.50047 0,0.54132 0.4954,0.98421 1.10088,0.98421 2.37977,0 13.28718,10.99645 15.4699,15.59617 4.90688,10.3405 3.53106,18.35803 -6.66878,38.86191 -7.25917,14.59248 -7.33129,14.81682 -7.33595,22.81859 -0.005,8.59113 1.61193,13.28997 7.64736,22.22336 7.31071,10.821 12.29643,19.1824 13.15844,22.0676 1.59725,5.34605 1.22546,19.82873 -0.65229,25.40957 -3.02295,8.98448 -10.66618,22.72843 -12.63964,22.72843 -0.3585,0 -0.95647,-0.30464 -1.3288,-0.67698 l 0,0 z"
       id="path2998-8"
       inkscape:connector-curvature="0" />
    <path
       style="color:#000000;fill:#ffff00;fill-opacity:1;fill-rule:nonzero;stroke:none;stroke-width:1.01015258;marker:none;visibility:visible;display:inline;overflow:visible;enable-background:accumulate"
       d="m 459.07987,983.02396 c -0.32144,-0.83766 0.0743,-2.5423 0.87954,-3.78807 4.66681,-7.22044 7.8907,-24.56323 6.40625,-34.46223 -0.6303,-4.20315 -8.38908,-17.90697 -12.09589,-21.36417 -0.60942,-0.56838 -1.56261,-1.78118 -2.11819,-2.69511 -0.55559,-0.91392 -2.65023,-4.08543 -4.65477,-7.04779 -5.99538,-8.86015 -8.09118,-15.87542 -7.92054,-26.51248 0.11657,-7.26646 0.63597,-10.23026 2.49364,-14.22897 4.32482,-9.30939 6.63318,-15.70944 6.02246,-16.6976 -0.33314,-0.53904 -0.14193,-0.98007 0.42492,-0.98007 1.36069,0 4.13936,-9.48683 4.13936,-14.13241 0,-2.01531 -0.56821,-4.35356 -1.26269,-5.19612 -2.11866,-2.57038 -12.52721,-10.97605 -13.5914,-10.97605 -0.54957,0 -1.98092,-0.7955 -3.18076,-1.76777 -1.19985,-0.97227 -4.33775,-3.30152 -6.9731,-5.17611 -8.77612,-6.24267 -13.37784,-15.9861 -13.37784,-28.32549 0,-4.72246 0.60615,-9.3712 1.50125,-11.51348 0.82569,-1.97615 7.01903,-9.64569 13.76297,-17.04341 14.57353,-15.98636 16.45757,-18.40694 17.94263,-23.05246 0.90031,-2.8163 1.90805,-3.7842 4.92325,-4.7286 2.08517,-0.65311 4.63266,-1.51234 5.66108,-1.90942 1.75812,-0.67881 1.77905,-0.54636 0.35031,2.21653 -0.83575,1.61616 -1.84101,5.08213 -2.2339,7.70215 -0.3935,2.62398 -2.22198,7.15529 -4.07084,10.08822 -1.84606,2.9285 -4.6107,7.3701 -6.14364,9.87023 -1.53294,2.50013 -4.67744,7.04581 -6.98777,10.10152 -6.09204,8.05752 -7.07185,11.73574 -5.01287,18.81839 0.91262,3.13933 2.41099,6.89435 3.32969,8.34449 2.1777,3.43742 13.52173,14.25338 14.94928,14.25338 0.77973,0 5.9261,4.55815 10.65917,9.44084 7.35521,7.58773 9.67878,16.62542 6.93337,26.96771 -0.65739,2.47644 -4.45049,11.03415 -8.4291,19.01712 l -7.23386,14.51451 0.0464,8.719 c 0.0539,10.12521 0.45339,11.07447 12.22965,29.05943 8.59509,13.1266 10.23155,17.85978 9.78742,28.3085 -0.44529,10.47613 -5.50904,23.81336 -12.24774,32.2589 -3.03111,3.79884 -4.0351,4.19099 -4.90775,1.91689 l -10e-6,0 z"
       id="path3790-5"
       inkscape:connector-curvature="0" />
    <path
       style="color:#000000;fill:#ffff00;fill-opacity:1;fill-rule:nonzero;stroke:none;stroke-width:1.01015258;marker:none;visibility:visible;display:inline;overflow:visible;enable-background:accumulate"
       d="m 556.81856,915.099 c -0.53627,-2.08344 -1.45018,-5.61414 -2.03092,-7.846 -0.63362,-2.43506 -3.0878,-6.33768 -6.13658,-9.75833 -2.79438,-3.13522 -5.08069,-5.91766 -5.08069,-6.1832 0,-0.4596 -6.88346,-7.29815 -11.13537,-11.06273 -1.09814,-0.97227 -2.36569,-1.76777 -2.8168,-1.76777 -1.73776,0 -7.90272,-10.01824 -8.91888,-14.49345 -0.27151,-1.19574 -1.18138,-7.17432 -2.02192,-13.28574 -2.13202,-15.50147 -1.98984,-15.03243 -5.64978,-18.63727 -3.2599,-3.21081 -10.10971,-7.12162 -12.47357,-7.12162 -2.50379,0 -22.26931,-9.95663 -25.67404,-12.93297 -17.88638,-15.63586 -21.03496,-21.68373 -19.69062,-37.82229 1.14989,-13.80436 4.81843,-15.99982 5.9534,-3.56286 0.93245,10.21774 6.0896,20.33185 13.7012,26.87057 5.2175,4.48208 16.15119,10.27496 19.39334,10.27496 0.78486,0 5.25656,1.59099 9.9371,3.53553 4.68054,1.94454 8.98179,3.54272 9.55833,3.55151 3.19092,0.0486 15.89252,14.62307 16.27248,18.67185 0.64077,6.82783 1.75402,13.60071 2.55546,15.54706 0.54694,1.32829 1.2481,4.90526 1.55811,7.94881 0.85511,8.39495 2.04773,10.69842 11.47903,22.17089 0.55165,0.67103 1.00299,1.65593 1.00299,2.18867 0,0.53273 0.35209,1.12013 0.78242,1.30533 1.53306,0.65975 9.01996,12.53597 10.08802,16.0023 1.61535,5.24248 2.62331,20.19483 1.36137,20.19483 -0.57147,0 -1.4778,-1.70464 -2.01408,-3.78808 z"
       id="path3792-7"
       inkscape:connector-curvature="0" />
    <path
       style="color:#000000;fill:#ffff00;fill-opacity:1;fill-rule:nonzero;stroke:none;stroke-width:1.01015258;marker:none;visibility:visible;display:inline;overflow:visible;enable-background:accumulate"
       d="m 348.61094,922.09919 c 0,-0.45567 1.61931,-2.11956 3.59847,-3.69754 1.97916,-1.57797 4.9571,-4.84376 6.61765,-7.25728 l 3.01919,-4.38824 -0.55177,-13.41319 c -0.72548,-17.6358 1.17246,-23.81015 9.83705,-32.00171 6.59053,-6.23073 13.11644,-12.10315 14.4033,-12.96099 2.92358,-1.94888 5.66925,-8.50828 5.68828,-13.58928 0.0213,-5.67749 -1.50134,-10.85822 -3.19122,-10.85822 -0.56933,0 -1.03515,-1.1096 -1.03515,-2.46577 0,-1.35617 -0.45457,-2.7467 -1.01016,-3.09007 -0.55558,-0.34337 -1.01015,-1.28429 -1.01015,-2.09093 0,-0.80664 -0.89263,-3.39359 -1.98362,-5.74876 -2.95983,-6.38956 -3.84133,-11.72487 -3.04835,-18.45026 0.66911,-5.67472 4.27385,-15.4834 6.12787,-16.67422 0.46049,-0.29577 3.01606,-2.4666 5.67905,-4.82408 5.78996,-5.12569 11.99646,-9.28537 13.85435,-9.28537 0.74068,0 1.85139,0.60813 2.46825,1.35141 0.84572,1.01903 0.68981,1.73804 -0.63392,2.92338 -7.22597,6.47051 -12.1534,11.69075 -12.6511,13.40288 -0.323,1.11117 -1.34263,4.06586 -2.26584,6.56599 -2.70191,7.31705 -1.4175,13.52781 5.83117,28.19638 5.63747,11.40812 6.23325,13.21748 6.16806,18.73224 -0.0996,8.42206 -1.14021,12.45241 -4.52355,17.51925 -1.5953,2.38908 -2.90054,4.54828 -2.90054,4.79822 0,0.24994 -0.79549,1.28439 -1.76776,2.29877 -0.97228,1.01439 -3.63176,3.85544 -5.90996,6.31346 -2.2782,2.45801 -6.1597,6.14052 -8.62555,8.18336 -3.65359,3.02683 -4.84109,4.89639 -6.41624,10.10153 -1.06309,3.513 -2.0114,9.79654 -2.10735,13.96342 -0.2722,11.82071 -3.74399,18.08843 -13.50416,24.37944 -4.20592,2.71098 -10.1563,3.92151 -10.1563,2.06618 z"
       id="path3794-6"
       inkscape:connector-curvature="0" />
    <path
       style="color:#000000;fill:#ffff00;fill-opacity:1;fill-rule:nonzero;stroke:none;stroke-width:1.01015258;marker:none;visibility:visible;display:inline;overflow:visible;enable-background:accumulate"
       d="m 221.33172,904.54509 c 0,-1.01277 2.56715,-2.25497 7.806,-3.77718 9.68688,-2.81464 15.23635,-6.0156 21.31425,-12.29414 6.07758,-6.27823 8.25539,-8.82259 8.25539,-9.64491 0,-0.36424 1.25007,-2.29616 2.77792,-4.29315 2.87775,-3.76135 6.0933,-9.1425 9.11136,-15.24763 0.96128,-1.94455 2.31599,-3.89905 3.01047,-4.34335 0.69448,-0.44429 1.26269,-1.23471 1.26269,-1.75648 0,-1.20951 8.12905,-11.88748 11.26076,-14.79165 2.80767,-2.60368 19.21485,-10.39167 27.12504,-12.87544 9.20652,-2.8908 23.7852,-9.64642 27.0234,-12.52238 3.18031,-2.82456 3.59589,-5.11893 3.87455,-21.39092 0.29678,-17.33071 1.63702,-24.04831 6.07584,-30.45352 3.41879,-4.93332 11.60774,-12.98176 13.20915,-12.9825 0.6548,-3e-4 1.79122,-0.56876 2.52538,-1.26323 1.71359,-1.62097 1.34495,-1.59171 28.10389,-2.23042 21.94341,-0.52377 22.92757,-0.63553 28.49422,-3.23576 3.17117,-1.4813 5.55905,-3.02775 5.30639,-3.43657 -0.56648,-0.91657 8.84259,-1.86616 9.87358,-0.99647 1.31303,1.10761 -6.13529,10.95333 -10.58081,13.98649 -4.58362,3.12737 -6.46561,3.54457 -25.73225,5.70432 -17.82856,1.99853 -24.36941,4.43876 -31.79106,11.86041 -8.99569,8.99569 -10.34579,12.68865 -10.45691,28.60308 -0.0504,7.22259 -0.46076,14.72298 -0.91185,16.66752 -0.86978,3.74944 -4.67471,11.09082 -5.755,11.1039 -0.35337,0.004 -3.40699,1.85383 -6.7858,4.11012 -6.88699,4.59895 -18.04477,7.97295 -32.94397,9.96192 -7.93412,1.05917 -9.81349,1.72358 -15.15229,5.35677 -6.72925,4.57944 -12.87838,10.72431 -12.05879,12.05043 0.2901,0.46938 0.0726,0.85342 -0.48328,0.85342 -1.60218,0 -9.5308,10.86464 -14.37486,19.69798 -6.31476,11.51519 -18.80087,23.30965 -28.22464,26.66116 -1.9146,0.68093 -7.45858,1.50561 -12.31994,1.83263 -7.43257,0.5 -8.83883,0.35451 -8.83883,-0.91445 z"
       id="path3796-1"
       inkscape:connector-curvature="0" />
    <path
       style="color:#000000;fill:#ffff00;fill-opacity:1;fill-rule:nonzero;stroke:none;stroke-width:1.01015258;marker:none;visibility:visible;display:inline;overflow:visible;enable-background:accumulate"
       d="m 210.22004,805.82954 c -2.50013,-0.37325 -5.45482,-1.19251 -6.56599,-1.82058 -1.11117,-0.62807 -2.8158,-1.38815 -3.78807,-1.68906 -0.97227,-0.30091 -1.76777,-1.47052 -1.76777,-2.59912 0,-1.87926 0.63461,-2.05201 7.53825,-2.05201 6.90891,0 18.08681,-2.83511 19.73587,-5.00572 0.27779,-0.36565 1.94976,-1.24884 3.71549,-1.96265 1.76572,-0.7138 3.45609,-1.93806 3.75637,-2.72057 0.30027,-0.7825 1.26108,-1.42274 2.13512,-1.42274 0.87405,0 2.56502,-0.90913 3.75772,-2.0203 1.1927,-1.11117 2.76468,-2.02031 3.49329,-2.02031 0.72862,0 1.32476,-0.4603 1.32476,-1.02289 0,-0.56259 2.61377,-2.2505 5.80837,-3.75091 5.62595,-2.64234 6.39054,-2.73041 24.3436,-2.80395 l 18.53522,-0.0759 3.5345,-4.00184 c 1.94398,-2.201 4.97212,-5.59282 6.7292,-7.53737 1.75707,-1.94454 4.61548,-5.3538 6.352,-7.57614 7.53903,-9.64815 17.48559,-18.29661 23.70791,-20.61385 1.87998,-0.70013 4.28784,-1.73979 5.3508,-2.31037 1.06296,-0.57059 6.51778,-1.50685 12.12183,-2.08059 11.22788,-1.1495 19.97974,0.30025 20.5784,3.40883 0.24178,1.25546 -1.80247,1.93625 -10.09378,3.36149 -19.74273,3.39369 -28.89682,7.6229 -35.30688,16.31186 -1.85589,2.51569 -4.39713,5.86132 -5.6472,7.43474 -1.25006,1.57341 -2.27284,3.32546 -2.27284,3.89344 0,0.56798 -0.3786,1.18422 -0.84135,1.36941 -0.46275,0.1852 -2.4345,2.84395 -4.38169,5.90834 -4.22994,6.65688 -8.98236,11.31181 -14.47493,14.17798 -3.63989,1.8994 -5.99412,2.13132 -23.73859,2.33858 -18.0937,0.21135 -20.06819,0.41385 -24.24366,2.48641 -5.1474,2.55499 -7.50784,3.9492 -10.98377,6.4876 -1.33137,0.97227 -3.2685,1.76777 -4.30475,1.76777 -1.03624,0 -1.88407,0.34879 -1.88407,0.77509 0,0.9798 -10.61649,5.05198 -14.64721,5.61825 -1.66676,0.23416 -5.07602,0.12037 -7.57615,-0.25288 z"
       id="path3798-8"
       inkscape:connector-curvature="0" />
    <path
       style="color:#000000;fill:#ffff00;fill-opacity:1;fill-rule:nonzero;stroke:none;stroke-width:1.01015258;marker:none;visibility:visible;display:inline;overflow:visible;enable-background:accumulate"
       d="m 273.62075,740.49123 c -3.86943,-0.75447 -11.71301,-3.67709 -18.18274,-6.77515 -21.55633,-10.32234 -29.71604,-11.66787 -44.44509,-7.32899 -7.93327,2.33698 -16.66518,5.12096 -19.96578,6.36566 -6.64129,2.5045 -11.87023,1.85421 -29.55121,-3.67513 -5.13681,-1.60642 -10.58972,-3.20372 -12.11758,-3.54955 -1.62873,-0.36866 -2.77792,-1.30584 -2.77792,-2.26546 0,-1.38698 0.80913,-1.53337 5.3033,-0.95949 2.91682,0.37246 11.9373,0.94512 20.04551,1.27258 13.57022,0.54804 15.25664,0.4148 21.2132,-1.67604 3.55905,-1.24927 7.37203,-2.74023 8.47329,-3.31323 2.92592,-1.5224 15.25891,-4.78774 22.14683,-5.86368 4.57619,-0.71483 7.51829,-0.55649 12.6269,0.67958 8.69632,2.10416 17.26143,4.50576 19.79252,5.54968 8.27477,3.41287 21.77043,6.91478 26.76905,6.94615 5.72376,0.036 7.42594,-0.82735 10.61603,-5.38404 5.8665,-8.37962 13.70085,-13.60814 26.75961,-17.85893 6.48105,-2.10967 9.40205,-2.45326 20.20818,-2.37702 12.30903,0.0869 12.82565,0.18124 20.20305,3.69187 4.16406,1.98153 8.93472,4.78188 10.60147,6.22303 1.66675,1.44114 3.48503,2.46927 4.04061,2.28475 1.57673,-0.52367 0.58305,-13.42582 -1.68552,-21.88522 -1.11744,-4.16688 -2.4689,-9.3752 -3.00325,-11.57405 -1.34139,-5.51988 -5.47446,-13.4841 -8.19713,-15.79548 -8.11057,-6.88536 -16.18362,-9.07198 -34.97361,-9.47278 -7.56789,-0.16144 -15.57807,-0.85348 -17.8004,-1.5379 -6.40899,-1.97378 -12.96903,-5.68062 -15.02697,-8.49121 -1.04225,-1.42342 -2.29231,-2.34247 -2.77792,-2.04235 -0.48561,0.30012 -0.88293,-0.005 -0.88293,-0.67915 0,-0.67366 -1.10492,-3.56043 -2.45536,-6.41504 -1.35045,-2.85461 -2.69856,-6.9896 -2.99581,-9.18885 -1.11443,-8.24542 -2.52276,-11.63205 -7.03222,-16.91042 -5.79458,-6.78263 -11.04376,-9.62858 -26.55771,-14.39881 -13.30199,-4.09009 -17.76118,-7.03749 -22.86907,-15.11582 -2.70236,-4.27388 -4.51154,-10.6066 -3.03018,-10.6066 0.48405,0 2.88766,2.04556 5.34135,4.54569 2.45369,2.50013 4.94489,4.54569 5.536,4.54569 0.59111,0 2.69563,1.33606 4.67671,2.96904 3.22022,2.65437 11.68486,5.61552 24.60513,8.60751 5.78663,1.34002 19.88536,13.29133 26.26392,22.26356 2.36986,3.3335 5.30744,9.10466 6.52797,12.8248 2.82215,8.60184 4.91489,11.20754 11.45888,14.26757 4.81049,2.24942 6.62421,2.47978 20.43141,2.59499 23.88045,0.19926 32.59438,2.5927 41.03404,11.27074 6.49009,6.67339 10.70754,15.51268 11.56803,24.24524 0.48659,4.9381 1.10299,7.02256 2.07669,7.02256 0.76158,0 1.38471,-0.63322 1.38471,-1.40715 0,-1.61182 2.14549,-2.63346 5.53038,-2.63346 1.28408,0 2.59633,-0.68185 2.91614,-1.51523 0.33736,-0.87915 1.84873,-1.51522 3.60032,-1.51522 2.73351,0 3.79152,-1.15249 11.19226,-12.19158 8.01306,-11.95241 8.16494,-12.29422 7.74311,-17.42513 -0.70812,-8.61323 -5.23463,-16.93973 -10.02087,-18.4334 -1.25044,-0.39023 -2.50081,-0.99176 -2.7786,-1.33673 -0.27779,-0.34495 -3.23249,-2.62048 -6.56599,-5.05672 -7.47811,-5.46525 -9.88367,-7.89963 -12.17041,-12.31612 -2.28794,-4.41887 -2.27292,-13.60384 0.0295,-18.05631 1.63337,-3.15851 8.40382,-13.11737 9.6395,-14.17896 3.01101,-2.58682 6.03695,-8.28879 6.03695,-11.37582 0,-4.15121 -2.99089,-11.74928 -5.41783,-13.76345 -0.90929,-0.75464 -1.65324,-1.81032 -1.65324,-2.34594 0,-0.53563 -1.42207,-2.95407 -3.16017,-5.37432 -3.05777,-4.25786 -3.14535,-4.67238 -2.70292,-12.79205 0.40787,-7.4853 0.89025,-9.15526 4.46642,-15.46265 2.80182,-4.94163 4.68051,-7.16828 6.23845,-7.39387 2.94294,-0.42613 2.81937,0.72669 -0.85889,8.0133 -3.1573,6.25457 -4.7123,14.02597 -3.649,18.23648 0.32742,1.29651 3.30168,5.18073 6.60947,8.63159 7.04353,7.34819 10.52026,15.04814 10.62225,23.5252 0.0586,4.87172 -0.42791,6.28125 -3.95116,11.44703 -2.2099,3.24015 -4.46127,6.64942 -5.00304,7.57614 -0.54178,0.92673 -2.01913,3.30038 -3.283,5.27479 -3.83139,5.98533 -2.4717,10.2984 4.56507,14.48088 4.04799,2.40603 11.31972,8.11871 11.31972,8.89278 0,0.44864 0.43115,0.8157 0.95811,0.8157 1.28162,0 4.93657,3.58728 9.03458,8.8673 4.32614,5.57397 6.25088,11.9955 6.42543,21.43728 0.16675,9.0192 -0.79865,11.15144 -8.91841,19.69797 l -5.75827,6.06092 3.50811,0.30357 c 1.92945,0.16696 5.87286,-0.62854 8.76313,-1.76777 4.12327,-1.62524 7.58564,-2.07604 16.07676,-2.09319 13.63196,-0.0276 26.96934,-2.79939 32.53724,-6.76207 5.58619,-3.97569 8.25589,-9.61478 8.21884,-17.36035 -0.0165,-3.44229 -0.305,-7.12538 -0.64119,-8.18464 -0.3362,-1.05924 -0.98743,-4.30552 -1.44719,-7.21394 -1.58178,-10.00629 4.54326,-21.17348 14.40446,-26.26224 2.2789,-1.176 7.66718,-2.40578 13.13197,-2.99714 13.87677,-1.50165 24.04275,-4.51007 29.4341,-8.71043 2.5201,-1.96339 4.582,-4.15297 4.582,-4.86572 0,-0.71276 0.34093,-1.44744 0.75761,-1.63264 0.41669,-0.18519 2.57589,-3.92409 4.79823,-8.30867 7.14909,-14.10487 16.80459,-21.24047 28.5914,-21.12958 3.52608,0.0332 6.92229,0.57155 7.54714,1.1964 0.84134,0.84136 0.49402,1.13893 -1.33879,1.14703 -3.84824,0.017 -11.44673,2.5999 -15.87819,5.39735 -5.04866,3.18708 -7.60035,6.40251 -9.04066,11.39234 -0.62036,2.14913 -1.72769,5.94528 -2.46074,8.43589 -0.73304,2.49062 -2.71047,6.33462 -4.39426,8.54222 -2.86135,3.75148 -13.22294,12.55621 -14.88365,12.64734 -0.41033,0.0225 -1.63364,0.80091 -2.71846,1.72976 -2.14086,1.83306 -10.53183,4.66935 -19.10955,6.45937 -16.37869,3.41793 -22.71857,14.45375 -16.64884,28.98066 1.33522,3.19562 1.37556,4.78297 0.28779,11.32557 -1.78013,10.70695 -5.12226,16.61781 -12.45625,22.03001 -3.57632,2.63917 -14.99563,6.28717 -19.68073,6.28717 -3.83435,0 -3.93747,0.57608 -0.64871,3.624 1.38896,1.28725 2.52538,3.0911 2.52538,4.00855 0,1.27466 -0.84055,0.93009 -3.56362,-1.4608 -4.20688,-3.69368 -8.69434,-6.04762 -17.64958,-9.25824 -5.78172,-2.07285 -8.43617,-2.35851 -22.22336,-2.39162 -14.55837,-0.0349 -16.21511,0.15824 -23.60352,2.75254 -26.65808,9.36052 -34.90016,30.10215 -17.99966,45.29714 6.16972,5.54711 20.31972,12.76362 22.4478,11.4484 0.45817,-0.28316 1.11856,-0.0528 1.46753,0.51179 0.34897,0.56464 2.08502,1.08041 3.85787,1.14614 l 3.22338,0.11952 -3.03046,0.77112 c -10.38004,2.64127 -23.2981,-0.0501 -32.60694,-6.79339 -2.32705,-1.68571 -6.54447,-3.82162 -9.37205,-4.74647 -2.82758,-0.92486 -7.32199,-3.21449 -9.98757,-5.08809 -6.58671,-4.62968 -12.93979,-6.60556 -21.23904,-6.60556 -8.70177,0 -9.7798,0.44213 -21.55098,8.83883 -2.53131,1.80565 -4.9279,3.283 -5.32577,3.283 -0.39786,0 -2.83675,1.93192 -5.41975,4.29315 -7.71888,7.05618 -10.19831,8.65175 -15.0926,9.71252 -8.1245,1.76088 -13.55803,1.90296 -20.56048,0.53762 l 0,0 z"
       id="path3800-9"
       inkscape:connector-curvature="0" />
    <path
       style="color:#000000;fill:#ffff00;fill-opacity:1;fill-rule:nonzero;stroke:none;stroke-width:1.01015258;marker:none;visibility:visible;display:inline;overflow:visible;enable-background:accumulate"
       d="m 361.74292,692.38516 c -1.94454,-1.14437 -5.14703,-3.14954 -7.11663,-4.45595 -6.95021,-4.60993 -16.17079,-7.61669 -21.67271,-7.06728 -5.04182,0.50346 -17.27024,3.83001 -27.7792,7.55689 -9.64788,3.42151 -17.48896,3.63754 -26.63464,0.73381 -9.54695,-3.03113 -11.4864,-4.23499 -19.3273,-11.99689 -7.83529,-7.75634 -11.0037,-9.29567 -23.23351,-11.28772 -12.52203,-2.03965 -21.38839,-6.13003 -26.31206,-12.13872 -3.29584,-4.02213 -4.37143,-6.57326 -2.77138,-6.57326 0.39383,0 4.38215,1.57462 8.86295,3.49916 6.56739,2.82075 10.72088,3.79996 21.42321,5.05062 16.10078,1.88152 20.89225,3.77853 28.75589,11.3849 10.26272,9.92695 9.64206,9.72988 28.44145,9.03104 9.95293,-0.36999 18.52525,-1.22443 21.90707,-2.18358 3.05571,-0.86666 10.32881,-1.83559 16.16244,-2.15317 10.02141,-0.54557 10.88526,-0.43303 15.65736,2.03978 2.77792,1.43947 5.50534,2.62663 6.06092,2.63813 2.89078,0.0598 12.62691,13.02159 12.62691,16.81026 0,1.76552 -0.77263,1.62968 -5.05077,-0.88802 z"
       id="path3802-2"
       inkscape:connector-curvature="0" />
    <path
       style="color:#000000;fill:#ffff00;fill-opacity:1;fill-rule:nonzero;stroke:none;stroke-width:1.01015258;marker:none;visibility:visible;display:inline;overflow:visible;enable-background:accumulate"
       d="m 392.9288,662.64913 c -0.96982,-1.17486 -1.04307,-1.79516 -0.24382,-2.06443 2.72072,-0.91665 -0.99304,-14.90147 -5.04769,-19.00798 -0.63009,-0.63816 -2.76855,-2.964 -4.75211,-5.16854 -6.28088,-6.98058 -12.62937,-10.32698 -22.58109,-11.90288 -2.18031,-0.34527 -4.45315,-1.01296 -5.05076,-1.48377 -0.5976,-0.4708 -2.90483,-1.42301 -5.12716,-2.11601 -4.67175,-1.4568 -10.86048,-6.98603 -13.09879,-11.70292 -1.04051,-2.19272 -1.54842,-6.29442 -1.54842,-12.50448 0,-11.17195 -0.57907,-12.42794 -10.02089,-21.73509 -7.73976,-7.62937 -9.76467,-11.70934 -8.68025,-17.48976 0.8076,-4.30492 4.08518,-9.31218 6.09542,-9.31218 1.0847,0 1.26469,1.13281 0.80145,5.04415 l -0.59741,5.04415 9.41739,9.60307 c 5.17956,5.28168 9.85174,9.60306 10.38262,9.60306 2.56628,0 3.65023,3.87493 3.68122,13.15975 0.0399,11.96698 0.82159,13.22798 11.03453,17.80165 11.18162,5.00748 12.52293,5.71328 14.75649,7.7649 1.11116,1.02065 3.63552,2.6889 5.60967,3.70723 3.97433,2.05007 13.44132,10.93818 16.66953,15.65024 4.64843,6.78507 6.14999,16.13236 3.8407,23.90856 -1.51004,5.08485 -3.18631,6.05337 -5.54063,3.20128 l 0,0 z"
       id="path3804-7"
       inkscape:connector-curvature="0" />
    <path
       style="color:#000000;fill:#ffff00;fill-opacity:1;fill-rule:nonzero;stroke:none;stroke-width:1.01015258;marker:none;visibility:visible;display:inline;overflow:visible;enable-background:accumulate"
       d="m 444.97487,658.14732 c 0.78275,-1.87833 3.30719,-4.77884 5.60988,-6.44559 2.30269,-1.66675 5.12595,-4.60326 6.27391,-6.52558 2.9,-4.85616 1.94235,-12.23356 -2.73123,-21.04042 -4.40828,-8.30694 -8.54185,-19.62093 -8.54185,-23.37991 0,-4.60512 2.87611,-11.42426 6.35642,-15.07085 1.78202,-1.86715 6.42201,-5.7791 10.3111,-8.69323 9.92626,-7.43782 10.64631,-8.45049 11.64446,-16.37676 1.46559,-11.63811 4.36658,-16.3241 12.08517,-19.52125 4.58007,-1.89712 4.79681,-0.5706 0.6557,4.01312 -4.13713,4.57931 -4.06746,4.26754 -3.73024,16.6913 0.23836,8.78154 0.14187,9.22309 -2.83124,12.95629 -1.6929,2.12571 -6.62908,6.50853 -10.96929,9.73961 -10.61101,7.8994 -13.43391,13.78696 -9.87879,20.60359 0.82995,1.59136 1.509,3.50786 1.509,4.25888 0,1.36229 1.82974,6.02385 4.84839,12.3521 1.11544,2.3384 1.61267,6.46074 1.65587,13.72817 l 0.0617,10.38625 -3.85608,4.70759 c -5.61744,6.85786 -10.09632,9.92725 -15.35006,10.51942 l -4.54603,0.5124 1.42318,-3.41513 0,0 z"
       id="path3806-9"
       inkscape:connector-curvature="0" />
    <path
       style="color:#000000;fill:#ffff00;fill-opacity:1;fill-rule:nonzero;stroke:none;stroke-width:1.01015258;marker:none;visibility:visible;display:inline;overflow:visible;enable-background:accumulate"
       d="m 486.98009,695.35508 c -5.49527,-1.42397 -9.06962,-4.47969 -9.06962,-7.75365 0,-3.65478 1.36143,-4.17153 12.6269,-4.79271 9.5118,-0.52449 19.69797,-2.80478 19.69797,-4.40963 0,-0.51616 0.64144,-0.93847 1.42543,-0.93847 0.78399,0 2.58638,-1.37971 4.00531,-3.06601 2.65193,-3.15164 7.78439,-12.64205 7.51932,-13.90393 -0.0818,-0.38926 0.83485,-2.90462 2.03693,-5.5897 1.20208,-2.68509 2.1856,-5.21256 2.1856,-5.61662 0,-1.26844 6.42031,-7.36573 8.64764,-8.21256 3.61079,-1.37282 19.85735,-2.13634 25.383,-1.19289 9.05395,1.54586 15.39985,0.0101 26.86355,-6.50126 9.97746,-5.66716 10.5573,-5.85917 17.39263,-5.75931 7.01229,0.10244 17.86823,3.50983 18.79945,5.90064 0.23768,0.61022 -2.91888,1.12652 -7.97277,1.30407 -8.05567,0.28301 -8.63687,0.47044 -15.65737,5.04935 -17.35781,11.32113 -23.06918,13.31387 -38.21234,13.33257 -15.61012,0.0193 -18.04222,0.62412 -21.91157,5.44926 -1.83441,2.28755 -5.53122,7.61437 -8.21514,11.83739 -11.61267,18.27202 -30.72256,28.70432 -45.54492,24.86346 z"
       id="path3810-5"
       inkscape:connector-curvature="0" />
    <path
       style="color:#000000;fill:#ffff00;fill-opacity:1;fill-rule:nonzero;stroke:none;stroke-width:1.01015258;marker:none;visibility:visible;display:inline;overflow:visible;enable-background:accumulate"
       d="m 655.85137,887.00203 c -3.40731,-7.47826 -12.57964,-19.57334 -18.18032,-23.97349 -3.32573,-2.61284 -6.35593,-4.75062 -6.73378,-4.75062 -0.37783,0 -2.00803,-0.94066 -3.62264,-2.09037 -1.6146,-1.1497 -8.56943,-4.0306 -15.45518,-6.40198 -8.82064,-3.03775 -14.41603,-5.66847 -18.93856,-8.90414 -9.66574,-6.9154 -19.73659,-17.56822 -24.44385,-25.85638 -2.3092,-4.06584 -4.65709,-8.15696 -5.21754,-9.09137 -0.56046,-0.9344 -2.33321,-4.07783 -3.93946,-6.98539 -4.77208,-8.63821 -7.70365,-9.56625 -31.77527,-10.05903 -22.24393,-0.45536 -29.68855,-1.41869 -33.6835,-4.35859 -1.50536,-1.10781 -3.20999,-2.01419 -3.78807,-2.01419 -0.57808,0 -1.05106,-0.45457 -1.05106,-1.01015 0,-0.55558 -0.6752,-1.01015 -1.50044,-1.01015 -1.80978,0 -10.00842,-8.21544 -13.10513,-13.13199 -2.37595,-3.77222 -6.73461,-24.60845 -6.85822,-32.78523 -0.0382,-2.52473 -0.45197,-4.59041 -0.91955,-4.59041 -0.46759,0 -0.85016,0.47249 -0.85016,1.04998 0,0.6111 -0.61581,0.50554 -1.47327,-0.25254 -1.27534,-1.12753 -1.17356,-1.54763 0.75762,-3.1271 9.62293,-7.87037 13.78437,-14.21355 13.82544,-21.07377 0.0406,-6.78794 0.47688,-7.06684 6.92387,-4.42669 11.45445,4.69078 13.65602,5.04259 23.98908,3.83341 10.14381,-1.18703 15.77175,-3.70603 22.37081,-10.01291 9.59798,-9.173 14.48961,-12.19468 21.07286,-13.0172 10.59096,-1.32326 32.74785,4.82528 50.31413,13.96217 7.82153,4.06827 8.16377,4.1458 17.67767,4.00427 7.64847,-0.11378 11.41201,-0.72728 17.78294,-2.89882 6.48578,-2.21069 9.9758,-2.76524 17.67767,-2.80891 l 9.59645,-0.0544 12.6269,6.26545 c 13.21309,6.55631 20.20305,11.87534 20.20305,15.37358 0,2.63124 -0.61128,2.5862 -5.55584,-0.40935 -12.78633,-7.74632 -28.1991,-12.15254 -39.90102,-11.40696 -5.45342,0.34746 -7.72941,1.1129 -13.432,4.51739 -4.66096,2.78262 -8.60496,4.3163 -12.28071,4.77556 -6.97514,0.87149 -20.94069,-1.04709 -26.79307,-3.68081 -10.62421,-4.78116 -13.12901,-5.81686 -22.54185,-9.32064 -8.02597,-2.98755 -11.11669,-3.64877 -16.3786,-3.50401 l -6.48581,0.17843 -8.88593,8.69333 c -11.63642,11.38419 -14.64341,13.52593 -22.50156,16.02677 -9.03506,2.87539 -11.24414,3.13556 -19.20427,2.26176 -5.68714,-0.62429 -8.32126,-1.59749 -14.69835,-5.43044 -4.27321,-2.56841 -7.97166,-4.66984 -8.21878,-4.66984 -1.51501,0 -3.75488,3.79149 -4.07326,6.89493 -0.20565,2.00469 -0.53324,3.80421 -0.72797,3.99894 -0.19473,0.19473 0.0924,1.97106 0.63812,3.9474 0.54569,1.97634 1.17148,4.52444 1.39064,5.66244 1.37856,7.15833 3.83555,16.7305 4.83284,18.82827 1.92053,4.03976 10.26022,11.75762 15.48342,14.32892 4.55117,2.24048 6.40961,2.44482 27.60807,3.03548 24.70906,0.68847 29.1452,1.55264 34.71223,6.76202 2.67058,2.499 6.59277,7.91527 9.27499,12.80812 0.60914,1.11117 2.5527,4.60951 4.31904,7.77408 1.76634,3.16458 3.21152,6.42232 3.21152,7.23943 0,0.8171 0.34093,1.63717 0.75762,1.82237 0.97145,0.43175 7.3236,13.29782 7.3236,14.83371 0,0.6382 0.45457,1.16037 1.01015,1.16037 0.55559,0 1.01016,0.8299 1.01016,1.84422 0,1.70751 3.85939,6.237 5.31428,6.237 0.35112,0 3.27652,1.54616 6.50088,3.4359 3.22438,1.88974 9.95362,5.08428 14.95388,7.09897 14.83066,5.97552 19.68131,8.8204 26.42872,15.50024 3.52068,3.48542 6.40124,6.7106 6.40124,7.16705 0,0.45644 0.90913,1.65266 2.0203,2.65825 1.11117,1.0056 2.02031,2.43975 2.02031,3.18702 0,0.74726 0.374,1.35867 0.83109,1.35867 1.64719,0 5.22982,8.89872 5.22982,12.99009 0,4.75735 -1.1453,5.39119 -2.87639,1.59188 l 0,0 z"
       id="path3812-4"
       inkscape:connector-curvature="0" />
    <path
       style="color:#000000;fill:#ffff00;fill-opacity:1;fill-rule:nonzero;stroke:none;stroke-width:1.01015258;marker:none;visibility:visible;display:inline;overflow:visible;enable-background:accumulate"
       d="m 656.15187,785.62619 c -0.5278,-0.512 -5.44226,-3.20537 -10.92104,-5.98527 -8.45449,-4.28976 -11.12866,-5.15312 -17.67767,-5.70726 -8.60984,-0.72852 -22.73229,-3.98538 -25.40794,-5.85948 -1.63449,-1.14485 -9.73157,-8.14641 -18.04813,-15.60626 -8.83238,-7.92253 -23.50332,-8.60413 -42.04195,-1.95322 -5.99026,2.14906 -19.51538,3.01254 -26.72086,1.70594 -6.0655,-1.09988 -13.43931,-4.56073 -18.31446,-8.59577 -7.53389,-6.23561 -17.9935,-22.72769 -14.41436,-22.72769 0.4988,0 3.32271,1.59099 6.27535,3.53553 2.95264,1.94454 5.54971,3.53553 5.77126,3.53553 0.40988,0 7.02432,4.34814 14.16179,9.30954 3.17166,2.20469 5.40718,2.83545 11.38193,3.21143 6.44199,0.40539 8.93808,-5e-4 18.68782,-3.0388 6.18902,-1.92867 12.45931,-4.16931 13.93399,-4.97919 7.69228,-4.22454 28.52945,0.69214 37.32321,8.80667 6.11298,5.64081 16.12224,14.32362 18.14521,15.74056 2.62772,1.84053 17.31556,7.67735 24.66709,9.8025 7.98276,2.30761 19.28682,8.46465 20.82808,11.34453 0.67619,1.26347 2.06579,2.56267 3.088,2.88711 1.13366,0.3598 1.85857,1.54834 1.85857,3.04719 0,2.55998 -0.93763,3.1156 -2.57589,1.52641 z"
       id="path3814-3"
       inkscape:connector-curvature="0" />
    <path
       style="color:#000000;fill:#0000ff;fill-opacity:1;fill-rule:nonzero;stroke:#000000;stroke-width:1.01015258;stroke-linecap:butt;stroke-linejoin:miter;stroke-miterlimit:4;stroke-opacity:1;stroke-dasharray:none;stroke-dashoffset:0;marker:none;visibility:visible;display:inline;overflow:visible;enable-background:accumulate"
       d="m 409.2553,734.4318 c -19.82534,-6.85816 -29.27083,-15.11984 -30.65579,-26.81367 -1.2568,-10.61175 5.95174,-19.92242 21.09361,-27.24486 l 8.28949,-4.0087 19.90998,0 19.90998,0 8.9328,4.64154 c 4.91303,2.55285 10.64965,5.56109 12.74802,6.68499 2.24553,1.20271 4.89446,3.88501 6.43835,6.51947 2.3495,4.00909 2.55009,5.12169 1.92284,10.66565 -0.38515,3.4043 -1.54458,7.84462 -2.57652,9.86738 -2.14117,4.19704 -14.49274,16.1692 -16.68162,16.1692 -0.79858,0 -4.88644,1.36432 -9.08411,3.03181 -5.8999,2.34369 -8.9437,2.97419 -13.41082,2.77792 -3.17827,-0.13964 -8.2788,0.062 -11.33452,0.44797 -4.79256,0.60544 -6.92222,0.22919 -15.50169,-2.7387 z m 57.52868,-12.67567 c 5.72505,-3.53828 5.61842,-7.00577 -0.21545,-7.00577 -6.12883,0 -13.43858,5.23305 -12.11774,8.67509 0.52089,1.35741 1.45508,1.54964 4.87408,1.00292 2.32633,-0.372 5.68293,-1.57451 7.45911,-2.67224 z m -48.0879,-1.16292 c 4.5655,-1.34417 8.08122,-4.58283 8.08122,-7.44436 0,-2.93317 -5.12781,-7.22326 -9.64711,-8.07109 -12.84599,-2.40992 -25.1413,2.73424 -23.37318,9.77897 1.55953,6.21367 13.77486,9.02344 24.93907,5.73648 l 0,0 z"
       id="path3964-1"
       inkscape:connector-curvature="0" />
    <path
       style="color:#000000;fill:#ffffff;fill-opacity:1;fill-rule:nonzero;stroke:none;stroke-width:1.01015258;marker:none;visibility:visible;display:inline;overflow:visible;enable-background:accumulate"
       d="m 399.317,719.52769 c -5.17587,-2.42845 -6.37257,-5.41574 -3.64327,-9.09459 2.73123,-3.68146 8.51881,-5.41211 16.64534,-4.97743 6.86593,0.36725 10.83693,2.20172 13.33353,6.15966 4.22601,6.69961 -15.98092,12.77065 -26.3356,7.91236 z"
       id="path4013"
       inkscape:connector-curvature="0" />
    <path
       style="color:#000000;fill:#ffffff;fill-opacity:1;fill-rule:nonzero;stroke:none;stroke-width:1.01015258;marker:none;visibility:visible;display:inline;overflow:visible;enable-background:accumulate"
       d="m 454.99158,723.37127 c -1.14026,-1.84499 4.75206,-6.7588 9.07782,-7.57032 4.91434,-0.92194 7.00441,-0.0268 5.68661,2.43556 -1.95188,3.64713 -13.25447,7.57793 -14.76443,5.13476 z"
       id="path4015"
       inkscape:connector-curvature="0" />
    <path
       sodipodi:type="arc"
       style="color:#000000;fill:#00ffff;fill-opacity:1;fill-rule:nonzero;stroke:none;stroke-width:0.25299999000000001;marker:none;visibility:visible;display:inline;overflow:visible;enable-background:accumulate"
       id="path4023"
       sodipodi:cx="431.20535"
       sodipodi:cy="722.80859"
       sodipodi:rx="8.7946424"
       sodipodi:ry="6.9642854"
       d="m 429.66565,729.66532 c -4.78213,-0.67338 -7.96947,-4.28912 -7.11911,-8.07598 0.85036,-3.78687 5.41639,-6.31085 10.19852,-5.63747 4.78213,0.67338 7.96946,4.28912 7.11911,8.07598 -0.68909,3.06867 -3.86904,5.40113 -7.78555,5.71061"
       sodipodi:start="1.7467763"
       sodipodi:end="7.7545225"
       sodipodi:open="true"
       transform="matrix(1.9541536,0,0,1.391961,-432.59687,-292.8148)" />
    <path
       sodipodi:type="arc"
       style="color:#000000;fill:#00ffff;fill-opacity:1;fill-rule:nonzero;stroke:none;stroke-width:0.25299999000000001;marker:none;visibility:visible;display:inline;overflow:visible;enable-background:accumulate"
       id="path4023-2"
       sodipodi:cx="431.20535"
       sodipodi:cy="722.80859"
       sodipodi:rx="8.7946424"
       sodipodi:ry="6.9642854"
       d="m 429.66565,729.66532 c -4.78213,-0.67338 -7.96947,-4.28912 -7.11911,-8.07598 0.85036,-3.78687 5.41639,-6.31085 10.19852,-5.63747 4.78213,0.67338 7.96946,4.28912 7.11911,8.07598 -0.68909,3.06867 -3.86904,5.40113 -7.78555,5.71061"
       sodipodi:start="1.7467763"
       sodipodi:end="7.7545225"
       sodipodi:open="true"
       transform="matrix(1.0253342,-0.52108124,0.34001771,0.79727122,-225.56554,367.49956)" />
    <path
       sodipodi:type="arc"
       style="color:#000000;fill:#f1d49b;fill-opacity:1;stroke:none;stroke-width:2.80100012;marker:none;visibility:visible;display:inline;overflow:visible;enable-background:accumulate"
       id="path4091"
       sodipodi:cx="-543.92859"
       sodipodi:cy="293.43362"
       sodipodi:rx="8.9285707"
       sodipodi:ry="27.5"
       d="m -536.41671,278.56931 c 2.66537,12.77799 1.46289,29.79158 -2.6858,38.00091 -4.1487,8.20934 -9.67259,4.50571 -12.33796,-8.27228 -2.66537,-12.77799 -1.46289,-29.79158 2.68581,-38.00091 3.94936,-7.81491 9.18903,-4.87606 11.99042,6.72522"
       sodipodi:start="5.7121297"
       sodipodi:end="11.926892"
       sodipodi:open="true"
       transform="matrix(0.84376997,-0.23302341,0.20218405,0.97247112,527.83713,-32.9559)" />
    <path
       sodipodi:type="arc"
       style="color:#000000;fill:#ffffff;fill-opacity:1;fill-rule:nonzero;stroke:none;stroke-width:0.25299999;marker:none;visibility:visible;display:inline;overflow:visible;enable-background:accumulate"
       id="path4043"
       sodipodi:cx="-602.0509"
       sodipodi:cy="469.50415"
       sodipodi:rx="105.05586"
       sodipodi:ry="116.16754"
       d="m -620.44335,583.87754 c -57.12465,-11.23226 -95.19875,-71.54452 -85.04087,-134.7112 10.15787,-63.16667 64.70112,-105.26784 121.82577,-94.03558 57.12464,11.23227 95.19874,71.54452 85.04087,134.7112 -8.23138,51.18678 -46.21732,90.0933 -93.00178,95.25563"
       sodipodi:start="1.7467763"
       sodipodi:end="7.7545225"
       sodipodi:open="true"
       transform="matrix(1.0121155,0,0,0.91871827,754.05974,49.578028)" />
    <path
       sodipodi:type="arc"
       style="color:#000000;fill:none;stroke:#000000;stroke-width:2.80100012;stroke-opacity:1;marker:none;visibility:visible;display:inline;overflow:visible;enable-background:accumulate"
       id="path4051-3-3"
       sodipodi:cx="-672.85712"
       sodipodi:cy="402.89789"
       sodipodi:rx="44.642857"
       sodipodi:ry="50.892857"
       d="m -702.86812,365.22051 c 7.12104,-7.37145 16.14011,-11.92381 25.71423,-12.9792"
       sodipodi:start="3.9751499"
       sodipodi:end="4.615992"
       transform="matrix(0.62689998,-0.28124292,0.40932104,0.91239042,413.05163,-127.55972)"
       sodipodi:open="true" />
  </g>
</svg>
