<?xml version="1.0" encoding="UTF-8" standalone="no"?>
<!-- Created with Inkscape (http://www.inkscape.org/) -->

<svg
   xmlns:dc="http://purl.org/dc/elements/1.1/"
   xmlns:cc="http://creativecommons.org/ns#"
   xmlns:rdf="http://www.w3.org/1999/02/22-rdf-syntax-ns#"
   xmlns:svg="http://www.w3.org/2000/svg"
   xmlns="http://www.w3.org/2000/svg"
   xmlns:sodipodi="http://sodipodi.sourceforge.net/DTD/sodipodi-0.dtd"
   xmlns:inkscape="http://www.inkscape.org/namespaces/inkscape"
   width="1380"
   height="1000"
   id="svg3787"
   version="1.1"
   inkscape:version="0.48.5 r10040"
   sodipodi:docname="Universoft1.svg">
  <defs
     id="defs3789" />
  <sodipodi:namedview
     id="base"
     pagecolor="#ffffff"
     bordercolor="#666666"
     borderopacity="1.0"
     inkscape:pageopacity="0.0"
     inkscape:pageshadow="2"
     inkscape:zoom="1.1875571"
     inkscape:cx="1102.9597"
     inkscape:cy="995.17957"
     inkscape:document-units="px"
     inkscape:current-layer="layer1"
     showgrid="false"
     inkscape:window-width="1280"
     inkscape:window-height="747"
     inkscape:window-x="-4"
     inkscape:window-y="-4"
     inkscape:window-maximized="1"
     fit-margin-top="0"
     fit-margin-left="0"
     fit-margin-right="0"
     fit-margin-bottom="0"
     inkscape:snap-page="true" />
  <metadata
     id="metadata3792">
    <rdf:RDF>
      <cc:Work
         rdf:about="">
        <dc:format>image/svg+xml</dc:format>
        <dc:type
           rdf:resource="http://purl.org/dc/dcmitype/StillImage" />
        <dc:title />
      </cc:Work>
    </rdf:RDF>
  </metadata>
  <g
     inkscape:label="Layer 1"
     inkscape:groupmode="layer"
     id="layer1"
     transform="translate(755.125,119.53125)">
    <rect
       style="fill:#2c8cc8;fill-opacity:1;stroke:#2c8cc8;stroke-width:1.14586663;stroke-miterlimit:4;stroke-opacity:1;stroke-dasharray:none"
       id="rect4412"
       width="1380"
       height="1000"
       x="-755.125"
       y="-119.53125" />
    <path
       style="fill:#ffd700;fill-opacity:1;stroke:#000000;stroke-width:1.52443802;stroke-miterlimit:4;stroke-opacity:1;stroke-dasharray:none"
       d="m -469.92487,452.17504 c -6.2883,-1.97451 -17.95026,-5.95535 -25.91544,-8.84633 -28.18407,-10.22946 -45.76481,-10.72124 -45.7098,-1.27862 0.0128,2.20399 0.67372,5.03609 1.46861,6.29355 2.18203,3.45179 -1.7425,4.35615 -19.02299,4.38363 -19.27744,0.0307 -27.75894,-2.78563 -31.62972,-10.50265 -4.17135,-8.31627 -3.25206,-15.97876 3.56788,-29.7391 3.55711,-7.17704 5.17226,-21.88317 4.43305,-40.36342 -0.85813,-21.45321 1.16212,-30.40969 9.50364,-42.13308 6.36128,-8.94031 13.31944,-11.75488 24.03399,-9.72172 12.09693,2.29546 21.78185,7.56822 37.34874,20.33371 17.3927,14.26275 21.36931,16.27671 32.1386,16.27671 7.83563,0 9.11655,-0.48278 13.43811,-5.06497 5.24334,-5.55956 7.92317,-14.11912 9.48399,-30.29252 0.97283,-10.08066 3.32213,-13.72174 6.3902,-9.90392 2.12953,2.64992 6.97827,66.64144 7.06805,93.28121 0.0897,26.59841 -2.31531,41.47444 -7.63265,47.21194 -4.27853,4.61661 -4.46822,4.61726 -18.96426,0.0656 z"
       id="path3759"
       inkscape:connector-curvature="0" />
    <path
       style="fill:#ffd700;fill-opacity:1;stroke:#000000;stroke-width:1.52443802;stroke-miterlimit:4;stroke-opacity:1;stroke-dasharray:none"
       d="m -413.52066,453.46879 c -14.29345,-2.60008 -17.5216,-7.80591 -17.35756,-27.99135 0.13118,-16.14169 2.91536,-35.72684 9.73321,-68.46792 2.51651,-12.0849 4.57291,-23.74685 4.56977,-25.91544 -0.007,-5.15403 -5.43914,-13.96644 -9.21749,-14.9545 -3.42477,-0.89559 -3.78924,-2.46092 -1.06676,-4.58149 1.20574,-0.93916 7.19244,-0.9991 16.30164,-0.16322 8.48036,0.77819 22.796,0.72932 34.83754,-0.11892 22.81791,-1.60734 25.38186,-1.23293 24.02785,3.50885 -3.51662,12.31532 -2.49367,45.87239 2.44492,80.20387 0.90458,6.28831 2.41961,20.32192 3.36674,31.18581 1.67393,19.20038 1.82859,19.77809 5.53316,20.6677 3.43438,0.82473 3.05767,1.19546 -3.81109,3.75053 -6.27746,2.33512 -12.73219,2.90008 -36.58652,3.20234 -15.93037,0.20185 -30.67931,0.055 -32.77541,-0.32626 l 0,0 z"
       id="path3761"
       inkscape:connector-curvature="0" />
    <path
       style="fill:#ffd700;fill-opacity:1;stroke:#000000;stroke-width:1.52443802;stroke-miterlimit:4;stroke-opacity:1;stroke-dasharray:none"
       d="m -286.81727,452.18529 -5.16049,-2.34296 5.05572,-3.41693 c 6.34606,-4.28903 7.77481,-9.55393 6.05711,-22.3204 -2.33818,-17.37785 -9.02589,-31.87695 -23.64165,-51.25564 -13.97112,-18.52396 -20.16895,-29.72384 -22.38442,-40.45009 -1.75311,-8.4877 -1.65937,-9.78393 1.07709,-14.89462 4.78072,-8.92861 10.95892,-11.20338 28.72885,-10.57777 l 15.06049,0.53022 8.56831,9.36234 c 9.074,9.9149 15.49664,12.79637 21.43663,9.61738 2.34091,-1.25283 3.13829,-3.18354 3.13829,-7.599 0,-10.75372 -0.02,-10.74211 18.60225,-10.74211 19.61062,0 22.52124,1.19361 30.14164,12.36074 2.79872,4.10132 5.19584,7.45695 5.3269,7.45695 0.1311,0 3.96195,-1.79633 8.51304,-3.99184 20.12002,-9.70621 42.61264,-14.32694 69.28002,-14.23239 18.08125,0.0641 39.806919,1.88102 41.387086,3.4612 1.494785,1.49476 6.769341,27.45265 5.990606,29.48192 -0.97844,2.54981 -4.199688,1.34742 -13.629982,-5.08766 -12.345295,-8.4242 -23.15153,-6.50346 -29.00982,5.15634 -2.87893,5.73 -3.24082,17.35068 -0.62191,19.96962 3.2411,3.24107 12.77067,2.17472 17.71036,-1.98177 2.491122,-2.0961 5.177616,-3.8111 5.970053,-3.8111 4.384153,0 6.665037,16.92922 2.963005,21.99208 -1.838549,2.51433 -2.409003,2.55882 -6.478894,0.5053 -10.748764,-5.42352 -16.209464,-4.87019 -19.763574,2.00266 -3.09988,5.99455 -2.72443,11.71463 1.2831,19.5494 7.39461,14.45638 23.452838,16.14746 37.899679,3.99121 8.87769,-7.47007 9.250069,-6.52238 11.29895,28.75474 0.760466,13.09356 0.528649,16.85529 -1.102412,17.8888 -1.135921,0.7198 -21.985408,1.31923 -46.332137,1.33207 -42.90025,0.0226 -44.47659,-0.0825 -51.0624,-3.40665 -10.13442,-5.1152 -13.61143,-12.32947 -13.64303,-28.30695 -0.0303,-15.40214 4.14627,-32.83201 16.0072,-66.79907 4.64412,-13.29969 8.25317,-25.89624 8.02019,-27.99234 -0.36945,-3.32287 -1.26539,-3.87173 -6.99408,-4.28433 -6.84409,-0.49295 -18.05626,2.54881 -28.4917,7.72957 -3.35375,1.665 -6.27658,3.17894 -6.49511,3.36431 -0.21859,0.18537 0.7551,3.35954 2.16367,7.0537 1.85178,4.85643 2.5469,11.36091 2.50999,23.48548 -0.0433,14.26909 -0.63533,18.29058 -3.97024,26.97722 -10.23346,26.65574 -31.09292,47.35819 -59.12654,58.68146 -11.92812,4.81798 -28.93357,6.12516 -36.28184,2.78891 l 0,0 z"
       id="path3763"
       inkscape:connector-curvature="0" />
    <path
       style="fill:#ffd700;fill-opacity:1;stroke:#000000;stroke-width:1.52443802;stroke-miterlimit:4;stroke-opacity:1;stroke-dasharray:none"
       d="m -40.361667,450.54861 c -5.068511,-2.75092 -8.822975,-14.04251 -8.80834,-26.49119 0.01072,-9.24796 4.624172,-42.42921 8.598428,-61.84416 3.559605,-17.38946 3.333894,-28.072 -0.732129,-34.65098 -5.303591,-8.5814 -4.501367,-11.26776 3.938137,-13.18692 16.735321,-3.80565 35.5194752,-6.27022 47.824317,-6.27478 22.32358,-0.008 50.839754,8.78382 64.084312,19.75844 6.646674,5.50751 13.476369,18.45989 13.476369,25.55761 0,11.27256 -14.040671,29.85923 -34.858984,46.14536 -5.894691,4.61142 -10.752871,8.8771 -10.795888,9.47927 -0.04288,0.60218 3.39998,4.68466 7.651167,9.07219 6.899883,7.12113 24.283774,31.33913 24.283774,33.83039 0,1.81218 -25.106225,0.95221 -28.964339,-0.99212 -2.096093,-1.05636 -5.659286,-5.33373 -7.918172,-9.50526 -7.803988,-14.41173 -16.275369,-18.09826 -23.559144,-10.25238 -3.382503,3.64352 -3.806149,5.23145 -3.237,12.13253 0.485491,5.88647 0.09862,8.15376 -1.4955313,8.76551 -1.1827599,0.45386 -11.8697773,0.79773 -23.7490147,0.76416 -16.044904,-0.0453 -22.662916,-0.63871 -25.737962,-2.30767 z M 34.769827,360.8339 c 4.553285,-2.35044 9.822201,-6.02381 11.708661,-8.16305 4.800203,-5.44329 4.57547,-12.96407 -0.506791,-16.96178 -4.861582,-3.82411 -6.533655,-4.35857 -18.905143,-6.04287 -14.178206,-1.93029 -17.7185156,-0.32446 -20.5880763,9.33834 -3.1312051,10.54398 -2.9809949,20.69517 0.3609147,24.38794 3.8555976,4.26038 17.0648236,3.05035 27.9304346,-2.55858 l 0,0 z"
       id="path3765"
       inkscape:connector-curvature="0" />
    <path
       style="fill:#ffd700;fill-opacity:1;stroke:#000000;stroke-width:1.52443802;stroke-miterlimit:4;stroke-opacity:1;stroke-dasharray:none"
       d="m 147.4997,451.9095 c -15.6955,-3.08432 -35.01157,-12.80549 -45.1897,-22.74256 -7.356387,-7.1821 -10.398762,-12.83613 -6.907015,-12.83613 0.707195,0 5.273525,1.37199 10.147515,3.04887 9.99007,3.43709 19.08182,3.85385 29.09101,1.33351 8.67835,-2.18524 12.83102,-7.2736 12.83102,-15.72221 0,-7.29738 -3.10996,-10.8296 -19.81769,-22.5085 -17.8409,-12.47098 -27.43991,-24.51653 -27.43991,-34.43365 0,-17.59455 10.6139,-31.36094 28.41943,-36.86051 12.21629,-3.77323 33.94149,-4.15371 46.74558,-0.81866 18.64429,4.85622 29.09725,12.85389 36.88404,28.2204 6.05394,11.94691 5.08063,30.48317 -1.60063,30.48317 -1.63334,0 -3.83718,-4.32589 -8.36451,-16.41858 -2.97069,-7.93481 -9.59271,-12.54574 -18.01758,-12.54574 -10.45199,0 -18.37389,6.04901 -18.46701,14.10105 -0.0682,5.89594 3.72138,9.06377 21.19088,17.7142 28.68172,14.20244 37.24976,22.85894 39.23754,39.64279 1.41826,11.97482 -6.13136,23.08793 -22.36595,32.92295 -16.3491,9.9044 -32.74909,12.06275 -56.37702,7.4196 z"
       id="path3767"
       inkscape:connector-curvature="0" />
    <path
       style="fill:#ffd700;fill-opacity:1;stroke:#000000;stroke-width:1.52443802;stroke-miterlimit:4;stroke-opacity:1;stroke-dasharray:none"
       d="m 284.67193,453.55921 c -36.25123,-9.53941 -54.86169,-37.02007 -50.32714,-74.31437 4.45914,-36.67412 20.96395,-60.18541 48.92911,-69.70013 22.61039,-7.69283 60.38791,0.84251 79.2828,17.9129 l 6.14599,5.55253 11.72106,-4.78714 c 34.25558,-13.99075 51.73267,-18.76505 69.15375,-18.89106 14.07735,-0.10183 42.42738,3.21895 45.08577,5.2811 1.04807,0.813 1.90556,3.10917 1.90556,5.10261 0,4.78148 1.74884,4.64674 19.49988,-1.50244 8.13997,-2.81979 20.63096,-5.9968 27.75767,-7.06003 15.344,-2.28915 43.15727,-2.07506 60.20895,0.46345 l 12.18907,1.81461 1.79744,12.19551 c 2.46349,16.71487 2.43189,19.05547 -0.25763,19.05547 -1.25621,0 -7.70439,-2.91549 -14.32926,-6.47886 l -12.0452,-6.47886 -6.50261,2.28666 c -9.95107,3.4993 -12.92498,10.38721 -12.61971,29.2285 0.24803,15.30553 2.97722,27.71612 8.45716,38.45776 4.74181,9.29469 8.43452,11.78194 15.98008,10.76352 5.43586,-0.73366 6.63954,-0.38205 8.11219,2.36965 3.31893,6.20145 1.71966,27.92111 -2.55763,34.73579 l -2.20249,3.50903 -34.59403,-0.46015 c -31.02943,-0.41275 -35.2122,-0.77432 -40.59344,-3.50904 -10.52781,-5.35024 -12.31789,-9.35975 -12.13189,-27.17354 0.20861,-19.97633 3.05776,-30.92388 22.19826,-85.29376 2.4777,-7.03806 2.72569,-9.25648 1.23538,-11.05218 -2.73375,-3.29395 -14.041,-2.79935 -26.30539,1.15065 l -10.54827,3.39731 0.96488,7.27376 c 0.84137,6.34257 0.61403,7.27376 -1.77573,7.27376 -1.50732,0 -6.33068,-2.41768 -10.71852,-5.37263 -10.01044,-6.74144 -15.26924,-7.86579 -21.56419,-4.61053 -6.71257,3.4712 -10.80218,10.76371 -10.80912,19.27463 -0.0107,12.4198 9.14059,15.97325 18.95133,7.35931 2.93872,-2.58024 6.04961,-4.25475 6.91298,-3.72113 0.86346,0.53363 1.56987,6.03713 1.56987,12.23002 l 0,11.25979 -7.24109,0.46464 -7.24103,0.46463 0.0857,10.80225 c 0.0544,6.84885 1.24828,14.10171 3.2623,19.81769 5.23793,14.86566 8.3654,28.51787 7.82874,34.17422 l -0.50567,5.32999 -33.53762,0.39433 c -38.59284,0.45378 -41.94444,-0.32827 -47.15412,-11.00267 -7.08053,-14.50759 -0.53816,-50.24463 18.12603,-99.01191 2.2169,-5.79247 3.82414,-12.30944 3.57168,-14.48216 -0.447,-3.84674 -0.73898,-3.94663 -11.1301,-3.8076 -8.19436,0.10964 -13.61465,1.29474 -23.35375,5.10613 -6.97548,2.72984 -12.99139,5.76783 -13.36867,6.75109 -0.37732,0.98327 0.94596,5.20248 2.94064,9.37603 11.75573,24.59716 10.05294,54.7226 -4.44535,78.64576 -9.11109,15.03386 -21.17419,24.20534 -38.65259,29.38728 -10.39461,3.08176 -35.73531,3.10735 -47.36199,0.0478 z m 62.38744,-82.12703 c 7.72737,-4.87806 10.78559,-10.75523 10.78559,-20.72722 0,-16.17524 -8.08279,-24.31599 -24.14288,-24.31599 -9.60628,0 -18.68661,3.41141 -23.63521,8.87955 -3.55196,3.92488 -7.10168,13.21544 -7.10168,18.58707 0,8.79868 7.02394,18.85674 14.97236,21.44 7.32414,2.38036 22.39908,0.38046 29.12182,-3.86341 l 0,0 z"
       id="path3769"
       inkscape:connector-curvature="0" />
    <path
       style="fill:#000000"
       d="m -684.70173,463.135 c -3.108,-0.45635 -8.47308,-1.97647 -11.92241,-3.37806 -3.44933,-1.40159 -6.71363,-2.54834 -7.25401,-2.54834 -0.54038,0 -5.37768,-2.92598 -10.74955,-6.50219 -10.55091,-7.02402 -18.21322,-14.79209 -23.17791,-23.49781 -1.7251,-3.025 -3.76911,-5.97732 -4.54226,-6.56071 -0.77314,-0.5834 -1.5302,-2.3834 -1.68236,-4 -0.15216,-1.61661 -0.81274,-4.28815 -1.46796,-5.93677 -4.29092,-10.79641 -5.51754,-37.9206 -2.54399,-56.25501 1.91539,-11.81001 6.59741,-26.44634 10.35559,-32.37238 2.56906,-4.05099 3.4616,-4.69232 7.28185,-5.23234 5.88393,-0.83174 28.6238,0.72709 29.94978,2.05307 2.407,2.40701 2.02399,9.15052 -1.50059,26.41995 -4.11199,20.14756 -4.45296,28.21074 -1.65551,39.14868 4.08657,15.97833 11.52075,22.41261 28.68912,24.83044 14.9943,2.11165 29.41803,-0.94857 36.52883,-7.75015 9.22193,-8.8209 11.74275,-31.00687 6.2884,-55.34478 -0.92445,-4.125 -1.74051,-11.42023 -1.81347,-16.21161 -0.18872,-12.39419 -0.34389,-12.28839 18.02298,-12.28839 l 14.57368,0 3.35116,3.87707 c 3.90986,4.52343 5.24354,8.01882 9.01344,23.62293 2.3543,9.74475 2.84356,14.22222 3.20551,29.33549 0.27324,11.40896 -4e-4,20.05671 -0.75941,24 -6.47124,33.61986 -32.19907,60.36919 -62.24236,64.71362 -7.58643,1.09704 -28.11859,1.02695 -35.94855,-0.12271 z m 34.33553,-3.45281 c 9.65039,-2.01362 14.86218,-3.9856 23.31537,-8.82177 18.00773,-10.30245 31.6446,-29.81945 35.88475,-51.35801 0.84388,-4.2866 1.83631,-13.94463 2.20541,-21.46229 l 0.67109,-13.66847 -18.78606,-0.11858 c -10.33233,-0.0652 -19.05362,-0.28468 -19.38063,-0.48769 -0.32701,-0.20302 -0.43983,4.35781 -0.25071,10.13518 0.61468,18.77811 -4.95009,29.85337 -18.03563,35.89535 -6.12903,2.82995 -6.75946,2.91269 -22.19402,2.91269 -13.69516,0 -15.34996,0.16178 -12,1.17315 6.14171,1.85422 19.12703,1.56697 27.64492,-0.61154 9.17555,-2.34671 14.5412,-4.98298 19.78594,-9.72128 4.52773,-4.09054 5.11416,-3.54893 1.41235,1.3044 -4.48634,5.8819 -8.78546,9.34174 -16.20761,13.04356 -6.48511,3.23447 -8.27905,3.66345 -16.99999,4.06515 -19.72806,0.9087 -35.11987,-5.73778 -41.28843,-17.82915 -1.07876,-2.11454 -1.95137,-5.10005 -1.93914,-6.63446 l 0.0222,-2.78983 2.03432,2.5 2.03432,2.5 -1.92123,-4 c -2.62062,-5.45613 -3.9458,-10.07109 -4.59542,-16.00359 -1.05949,-9.67552 -1.69569,-11.65895 -3.31,-10.3192 -0.97998,0.81331 -1.34495,2.61955 -1.11458,5.51604 0.18839,2.36871 0.002,4.30675 -0.41468,4.30675 -0.41646,0 -0.75721,1.575 -0.75721,3.5 0,4.96792 -2.74768,4.75795 -3.27153,-0.25 l -0.39226,-3.75 -0.1681,3.75 c -0.14881,3.31957 -0.46385,3.75 -2.74472,3.75 -2.27679,0 -2.55592,0.37819 -2.39869,3.25 0.46067,8.4142 0.0345,10.75 -1.96134,10.75 -1.45398,0 -2.01474,0.80998 -2.25,3.25 -0.24017,2.49095 -0.83885,3.32463 -2.56336,3.56955 -1.74877,0.24837 -2.25,0.97237 -2.25,3.25 0,1.61175 0.48033,2.93045 1.06739,2.93045 1.25456,0 0.1746,4.17134 -1.33028,5.1382 -0.58474,0.37568 -0.63736,1.19835 -0.12792,2 0.47597,0.74899 0.93141,2.85767 1.01208,4.68597 0.16195,3.67074 4.92001,9.56584 7.05845,8.74524 0.69093,-0.26513 1.56517,0.0178 1.94277,0.62877 0.40012,0.64742 0.23372,0.83098 -0.39888,0.44002 -0.59698,-0.36895 -1.34271,-0.2545 -1.65719,0.25434 -0.89396,1.44645 5.24236,6.10261 7.21066,5.47135 1.28807,-0.41309 1.38828,-0.31272 0.39707,0.39767 -2.78177,1.99368 13.54453,12.14162 26.08306,16.21246 12.99338,4.21851 28.2297,5.14904 40.92742,2.49957 z m -77.66972,-29.19238 -1.75602,-2.78121 2.315,2.22222 c 1.27325,1.22222 2.06346,2.47377 1.75602,2.78121 -0.30745,0.30744 -1.34919,-0.69256 -2.315,-2.22222 z m -0.47972,-7.21547 c -1.32891,-2.48308 -1.30392,-3.06574 0.13148,-3.06574 0.64167,0 0.86569,0.30098 0.49782,0.66885 -0.36787,0.36787 0.0769,1.49287 0.98832,2.5 0.93346,1.03146 1.16813,1.83115 0.53737,1.83115 -0.6159,0 -1.58564,-0.87042 -2.15499,-1.93426 z m 3.21481,0.37561 c -1.47255,-1.59853 -1.59579,-2.44135 -0.35699,-2.44135 0.85313,0 2.45047,3.00885 1.88053,3.54227 -0.15044,0.14081 -0.83604,-0.35461 -1.52354,-1.10092 z m -7.76008,-2.45766 c -0.34546,-0.55897 -1.04702,-0.75742 -1.55901,-0.44098 -0.512,0.31643 -0.93091,0.0238 -0.93091,-0.65036 0,-0.67413 -0.27006,-0.95562 -0.60013,-0.62555 -0.92599,0.92599 0.54069,2.7332 2.21817,2.7332 0.825,0 1.21735,-0.45734 0.87188,-1.01631 z m 25.21582,-55.23369 c -0.23836,-1.2375 -0.43337,-0.225 -0.43337,2.25 0,2.475 0.19501,3.4875 0.43337,2.25 0.23835,-1.2375 0.23835,-3.2625 0,-4.5 z m -39.10157,0.52083 c -0.33229,-0.33229 -0.56864,0.25833 -0.52522,1.3125 0.048,1.16494 0.28494,1.4019 0.60417,0.60417 0.28887,-0.72188 0.25334,-1.58438 -0.0789,-1.91667 z m 39.99425,-15.77083 c 3.09358,-14.59914 4.50171,-24.07551 3.83547,-25.81171 -1.04912,-2.73395 -5.5416,-3.68829 -17.36227,-3.68829 l -11.83428,0 -3.56901,8.30784 c -3.61226,8.40851 -6.99128,19.72535 -8.17548,27.38087 l -0.64793,4.18871 4.32754,0.31749 c 2.38015,0.17461 10.35023,0.31469 17.7113,0.31128 l 13.38375,-0.006 2.33091,-11 z m 115.65887,6.25 c -0.92369,-10.79752 -6.63536,-28.67739 -10.54174,-33 -2.40133,-2.65719 -2.8288,-2.75 -12.66612,-2.75 -16.55599,0 -16.87951,0.54611 -13.4018,22.62252 1.37565,8.73261 2.67858,16.43998 2.89539,17.12748 0.2949,0.93508 4.64804,1.25 17.2788,1.25 l 16.88459,0 -0.44912,-5.25 z m -132.52632,-38.443 c -0.97296,-0.25354 -2.32297,-0.23686 -3,0.0371 -0.67703,0.27393 0.11903,0.48137 1.76903,0.46099 1.65,-0.0204 2.20394,-0.2445 1.23097,-0.49804 z"
       id="path2989"
       inkscape:connector-curvature="0" />
    <path
       sodipodi:type="arc"
       style="fill:#000000;fill-opacity:0;fill-rule:nonzero;stroke:#ffffff;stroke-width:1.11716914;stroke-miterlimit:4;stroke-opacity:1;stroke-dasharray:none"
       id="path3804"
       sodipodi:cx="74.295547"
       sodipodi:cy="73.855934"
       sodipodi:rx="40.09322"
       sodipodi:ry="40.09322"
       d="M 67.276305,113.32993 A 40.09322,40.09322 0 0 1 40.790216,95.875449"
       sodipodi:start="1.7467763"
       sodipodi:end="2.5601765"
       transform="matrix(1.1103088,0,0,1.0391563,-750.22531,296.12694)"
       sodipodi:open="true" />
    <path
       style="fill:#ff0000;fill-opacity:1;fill-rule:nonzero;stroke:#ff0000;stroke-width:0.21101695;stroke-miterlimit:4;stroke-opacity:1;stroke-dasharray:none"
       d="m -668.97996,460.95743 c -8.21432,-0.30268 -17.37302,-2.03994 -24.45259,-4.63825 -9.08769,-3.33532 -20.51944,-9.89535 -23.42412,-13.44178 -0.78909,-0.96343 -0.83662,-1.52643 -0.1736,-2.05635 0.6334,-0.50625 0.44771,-0.65632 -0.51282,-0.41445 -0.66516,0.16748 -0.91414,0.14334 -1.75107,-0.16979 -2.12474,-0.79497 -4.91096,-2.97825 -5.44449,-4.2663 -0.3934,-0.94975 0.34399,-1.46521 1.44416,-1.0095 0.63909,0.26472 0.79963,0.12708 0.53338,-0.45726 -0.27934,-0.61309 -1.15347,-0.94796 -2.17348,-0.83262 -1.09063,0.12332 -2.00319,-0.40622 -3.50478,-2.03373 -2.11129,-2.28835 -3.17308,-4.56287 -3.50124,-7.50026 -0.10806,-0.96716 -0.39318,-2.3124 -0.6336,-2.98941 -0.731,-2.0584 -0.72998,-2.07872 0.15266,-3.06044 0.8514,-0.94696 1.54538,-2.67912 1.5406,-3.84526 -0.003,-0.73526 -0.12412,-0.98262 -0.55962,-1.1431 -0.76898,-0.28337 -1.27283,-2.76876 -0.86603,-4.27197 0.25815,-0.9539 0.76202,-1.36261 2.13173,-1.72916 1.82777,-0.48912 2.04877,-0.81663 2.55303,-3.78351 0.41961,-2.46883 0.67628,-2.80027 2.38653,-3.08179 0.34722,-0.0572 0.79127,-0.28076 0.98677,-0.49689 0.78789,-0.87102 0.8412,-1.32121 0.84253,-7.11412 0.002,-6.56843 -0.15547,-6.12871 2.25411,-6.31392 2.4175,-0.18583 2.63132,-0.48565 2.8684,-4.02213 l 0.12967,-1.93432 0.22148,1.72519 c 0.26553,2.06834 0.63988,3.27035 1.21015,3.88567 0.51932,0.56036 0.96728,0.57899 1.44799,0.0602 0.48175,-0.5199 0.69073,-1.42068 0.82612,-3.56091 0.13148,-2.07837 0.34998,-3.00332 0.76413,-3.2347 0.26772,-0.14957 0.31263,-0.6205 0.39044,-4.09427 0.0839,-3.74512 0.1081,-3.96562 0.52755,-4.8045 0.56089,-1.12179 1.2648,-1.44465 1.77525,-0.81426 0.18242,0.22528 0.45248,0.81638 0.60012,1.31357 0.26154,0.88069 0.37805,1.64039 1.48761,9.69984 0.75979,5.51881 1.68503,8.96995 3.51224,13.10063 1.67774,3.79279 6.76943,9.17815 11.96181,12.65172 3.35293,2.24303 7.05989,4.05147 11.02197,5.37707 3.90717,1.30724 3.18288,1.25721 16.24057,1.1216 14.21871,-0.14767 15.05357,-0.22842 19.01998,-1.83962 10.77042,-4.37507 16.66132,-10.97049 19.2137,-21.51154 1.08406,-4.47702 1.35613,-8.15044 1.29462,-17.47971 -0.0326,-4.94788 0.0118,-7.72926 0.1253,-7.84035 0.11377,-0.11138 1.79002,-0.11799 4.74788,-0.0187 2.51462,0.0844 11.04102,0.21004 18.94757,0.27922 l 14.37553,0.12579 -7.1e-4,0.80722 c -9.1e-4,1.15386 -0.66753,14.04013 -0.88317,17.0731 -0.55878,7.85936 -1.43441,14.87816 -2.38017,19.07882 -4.17902,18.56142 -15.37298,35.5293 -30.43588,46.13493 -5.89316,4.14931 -14.37662,8.31317 -20.63426,10.12773 -8.85239,2.56698 -17.04072,3.58023 -26.20395,3.24258 z m -56.62288,-28.43311 c 0,-0.1745 -0.22825,-0.66907 -0.50723,-1.09905 -0.55491,-0.85526 -3.4712,-3.80793 -3.61701,-3.66212 -0.1516,0.1516 2.02851,3.50471 2.80681,4.31698 0.76478,0.79817 1.31743,0.9845 1.31743,0.44419 z m -0.35169,-7.65203 c 0,-0.22432 -0.32289,-0.83759 -0.71752,-1.36282 -1.08436,-1.4432 -1.25931,-1.85353 -1.12619,-2.64146 l 0.11615,-0.68744 -0.7964,0 c -0.88339,0 -1.08069,0.18248 -1.02254,0.94573 0.0596,0.78207 1.21558,2.84142 1.98537,3.53689 0.81804,0.73904 1.56113,0.83857 1.56113,0.2091 z m 2.32159,-0.64723 c -0.12858,-1.07965 -1.09246,-2.75609 -1.72233,-2.99556 -0.48508,-0.18443 -1.07198,-0.0387 -1.20132,0.2984 -0.24415,0.63625 1.92805,3.28666 2.61333,3.18865 0.27332,-0.0391 0.34977,-0.16017 0.31032,-0.49149 l 0,0 z m 63.26951,-2.36801 c 6.06421,-0.42478 7.89737,-0.89987 13.01271,-3.37242 4.88348,-2.36048 7.93406,-4.25806 11.11738,-6.91543 2.56335,-2.13983 5.94526,-5.99762 7.85183,-8.95668 0.66209,-1.02758 0.93864,-1.95102 0.58428,-1.95102 -0.30174,0 -1.77788,1.07489 -3.37553,2.45797 -5.13299,4.44361 -9.02458,6.63464 -15.44415,8.6953 -6.87313,2.20625 -13.0853,3.13658 -20.86834,3.12523 -6.09233,-0.009 -8.67537,-0.34435 -13.36441,-1.73565 -7.29461,-2.16442 -13.77915,-5.86158 -19.05121,-10.86208 -1.45995,-1.38474 -4.32105,-4.65037 -5.0856,-5.80462 -0.62116,-0.93778 -1.38701,-1.85496 -1.54891,-1.85496 -0.0674,0 -0.0812,1.00892 -0.0305,2.24205 0.14364,3.4955 1.13025,6.31158 3.44776,9.84095 5.62676,8.56909 16.72192,14.01447 30.88497,15.15801 2.87288,0.23196 8.01925,0.20306 11.8697,-0.0667 l 0,0 z"
       id="path5278"
       inkscape:connector-curvature="0" />
    <path
       style="fill:#ff0000;fill-opacity:1;fill-rule:nonzero;stroke:#ff0000;stroke-width:0.14921153;stroke-miterlimit:4;stroke-opacity:1;stroke-dasharray:none"
       d="m -734.75877,421.97678 c -0.59971,-0.21749 -1.20646,-0.74798 -1.4553,-1.27237 -0.20512,-0.43227 -0.2062,-0.49121 -0.0162,-0.88958 0.2614,-0.54817 0.48139,-0.46836 0.59841,0.2171 0.13723,0.80391 0.33872,0.9542 1.03104,0.76903 0.74111,-0.19821 0.729,-0.19999 1.17061,0.1716 0.91552,0.77036 -0.0211,1.47837 -1.32853,1.00422 l 0,0 z"
       id="path5280"
       inkscape:connector-curvature="0" />
    <path
       style="fill:#e5e5e5;fill-opacity:1;fill-rule:nonzero;stroke:#e5e5e5;stroke-width:0.21101695;stroke-miterlimit:4;stroke-opacity:1;stroke-dasharray:none"
       d="m -738.42485,361.38519 c -1.69253,-0.0668 -3.77502,-0.18247 -4.62777,-0.257 l -1.55044,-0.13552 0.11188,-0.72558 c 1.31157,-8.5062 2.92939,-14.94873 5.83443,-23.23404 1.19135,-3.39777 2.25057,-6.04195 4.63915,-11.58087 l 1.80915,-4.19527 9.68471,0.0878 c 9.45115,0.0857 11.77998,0.20599 14.43258,0.74578 2.65347,0.53996 4.43146,1.58393 4.8482,2.84667 0.71509,2.16675 -0.95851,12.48712 -5.42626,33.46139 l -0.65551,3.07733 -13.01139,0.0154 c -7.15627,0.009 -14.39619,-0.0392 -16.08873,-0.10607 z"
       id="path5303"
       inkscape:connector-curvature="0" />
    <path
       style="color:#000000;fill:#ffffff;fill-opacity:1;fill-rule:nonzero;stroke:#ffffff;stroke-width:0.10545156;stroke-linecap:butt;stroke-linejoin:miter;stroke-miterlimit:4;stroke-opacity:1;stroke-dasharray:none;stroke-dashoffset:0;marker:none;visibility:visible;display:inline;overflow:visible;enable-background:accumulate"
       d="m -723.46545,359.48334 c -0.92842,-0.18423 -1.74507,-0.37021 -1.81477,-0.41329 -0.0697,-0.0431 -0.4845,-0.62242 -0.92179,-1.28743 l -0.79506,-1.2091 -0.68553,0 c -0.66093,0 -0.68553,-0.01 -0.68553,-0.26363 0,-0.19333 -0.0562,-0.26363 -0.2109,-0.26363 -0.1406,0 -0.21091,-0.0703 -0.21091,-0.21091 0,-0.15466 -0.0703,-0.2109 -0.26362,-0.2109 -0.23727,0 -0.26363,-0.0422 -0.26363,-0.4218 0,-0.35151 -0.0352,-0.42181 -0.21091,-0.42181 -0.13662,0 -0.2109,-0.0703 -0.2109,-0.19962 0,-0.2273 -0.1964,-0.32764 -0.64133,-0.32764 -0.16925,0 -0.30773,-0.041 -0.30773,-0.091 0,-0.0501 -0.27286,-0.17314 -0.60635,-0.27353 -0.33349,-0.10038 -0.79616,-0.26756 -1.02815,-0.37152 -0.232,-0.10396 -1.12323,-0.41092 -1.98052,-0.68214 l -1.5587,-0.49312 -0.33942,0.28219 c -0.18669,0.1552 -0.82582,0.73156 -1.4203,1.28079 -0.96514,0.89167 -1.08088,1.03717 -1.08088,1.35891 0,0.24997 -0.0484,0.36031 -0.15818,0.36031 -0.11424,0 -0.15818,-0.11717 -0.15818,-0.42181 0,-0.29023 0.0458,-0.4218 0.14689,-0.4218 0.17517,0 0.69673,-1.49443 0.69673,-1.99633 0,-0.18627 0.0684,-0.40703 0.1519,-0.49058 0.14715,-0.14714 0.19079,-0.36802 0.32646,-1.65207 0.0535,-0.50635 0.0976,-0.60634 0.26738,-0.60634 0.13518,0 0.20332,-0.073 0.20332,-0.21784 0,-0.11981 0.0444,-0.30071 0.0986,-0.40201 0.0542,-0.10129 0.26775,-0.76087 0.47453,-1.46572 0.29346,-1.0003 0.37597,-1.46748 0.37597,-2.12883 0,-0.77698 0.0175,-0.84728 0.2109,-0.84728 0.15466,0 0.2109,-0.0703 0.2109,-0.26363 0,-0.14499 0.043,-0.26363 0.0955,-0.26363 0.19999,0 0.43172,-1.00062 0.43172,-1.86418 0,-0.80726 0.0169,-0.87756 0.21091,-0.87756 0.14519,0 0.2109,-0.0703 0.2109,-0.22564 0,-0.1241 0.0646,-0.27832 0.14353,-0.34272 0.0789,-0.0644 0.29792,-0.61533 0.48662,-1.22431 0.20195,-0.65175 0.44657,-1.21807 0.59463,-1.37665 0.13835,-0.14816 0.25154,-0.34984 0.25154,-0.44816 0,-0.10847 0.0829,-0.17877 0.2109,-0.17877 0.17576,0 0.21091,-0.0703 0.21091,-0.42181 0,-0.35151 0.0351,-0.42181 0.2109,-0.42181 0.15466,0 0.2109,-0.0703 0.2109,-0.26363 0,-0.2109 0.0527,-0.26362 0.26363,-0.26362 0.24215,0 0.26363,-0.0387 0.26363,-0.47454 0,-0.40423 0.0312,-0.47453 0.2109,-0.47453 0.15467,0 0.21091,-0.0703 0.21091,-0.26363 0,-0.18747 0.0571,-0.26363 0.19772,-0.26363 0.21256,0 0.32953,-0.36026 0.32953,-1.01497 0,-0.2856 0.0417,-0.3559 0.21091,-0.3559 0.1406,0 0.2109,-0.0703 0.2109,-0.2109 0,-0.19729 0.0703,-0.2109 1.08886,-0.2109 1.02511,0 1.10336,-0.0154 1.33653,-0.26363 0.31186,-0.33196 0.45823,-0.33196 0.67573,0 0.095,0.14499 0.26655,0.26363 0.38121,0.26363 0.16134,0 0.20848,0.0715 0.20848,0.31635 0,0.17575 0.0937,0.41009 0.2109,0.52726 0.116,0.116 0.2109,0.27515 0.2109,0.35368 0,0.0785 0.11484,0.26669 0.25519,0.41813 0.14036,0.15145 0.27126,0.36005 0.2909,0.46357 0.0263,0.13882 0.15311,0.19673 0.48298,0.22064 0.36141,0.0262 0.44725,0.0717 0.44725,0.23727 0,0.13454 0.0724,0.20484 0.21091,0.20484 0.19081,0 0.2109,0.0703 0.2109,0.73816 0,0.66786 0.0201,0.73816 0.2109,0.73816 0.16601,0 0.21091,0.0703 0.21091,0.33027 0,0.2829 0.25248,0.82936 0.55387,1.19878 0.0473,0.058 0.15408,0.20036 0.23726,0.31635 0.14368,0.20038 0.15139,0.1938 0.15458,-0.13181 0.003,-0.29437 0.0405,-0.34272 0.26698,-0.34272 0.2561,0 0.26363,0.0211 0.26363,0.73816 0,0.65655 0.0223,0.73816 0.20163,0.73816 0.15306,0 0.2188,0.10161 0.2729,0.42181 0.0438,0.25932 0.12862,0.4218 0.22017,0.4218 0.0917,0 0.14965,0.11146 0.15083,0.29 10e-4,0.15949 0.14064,0.49467 0.31019,0.74484 0.44245,0.65284 0.57209,1.08795 1.01911,3.42049 0.27395,1.42943 0.44199,2.08267 0.53575,2.08267 0.0751,0 0.13661,0.0949 0.13661,0.2109 0,0.14061 0.0703,0.21091 0.2109,0.21091 0.20112,0 0.21091,0.0703 0.21091,1.51436 0,1.05741 0.0608,1.82904 0.20166,2.5572 0.11092,0.57356 0.37771,1.98417 0.59288,3.13469 l 0.39121,2.09184 -0.38197,0.31486 c -0.21009,0.17316 -0.38198,0.38257 -0.38198,0.46535 0,0.0828 -0.0835,0.1505 -0.18561,0.1505 -0.10209,0 -0.31356,0.11863 -0.46993,0.26363 -0.15638,0.14499 -0.31331,0.26363 -0.34876,0.26363 -0.0354,0 -0.32658,0.21354 -0.64697,0.47453 -0.32377,0.26373 -0.68365,0.46915 -0.81014,0.46242 -0.12518,-0.007 -0.98722,-0.16284 -1.91564,-0.34707 z"
       id="path4399"
       inkscape:connector-curvature="0" />
    <path
       style="fill:#e5e5e5;fill-opacity:1;fill-rule:nonzero;stroke:#e5e5e5;stroke-width:0.42203391;stroke-miterlimit:4;stroke-opacity:1;stroke-dasharray:none"
       d="m -618.32103,361.79814 c -2.90149,-0.13669 -5.53463,-0.35833 -5.85143,-0.49254 -0.68353,-0.28955 -0.61298,0.0344 -2.60715,-11.97308 -3.19695,-19.24983 -3.37046,-23.26238 -1.1138,-25.7579 1.55965,-1.72474 3.55168,-2.02986 13.26517,-2.03188 10.75446,-0.002 10.80281,0.0118 13.44593,3.88807 2.75854,4.0456 6.37429,14.08431 8.32811,23.12203 0.65421,3.02619 1.78952,11.26805 1.78952,12.99119 0,0.57708 -0.72139,0.61385 -10.99047,0.56013 -6.04475,-0.0316 -13.3644,-0.16933 -16.26588,-0.30602 z"
       id="path5312"
       inkscape:connector-curvature="0" />
    <path
       style="color:#000000;fill:#ffffff;fill-opacity:1;fill-rule:nonzero;stroke:#ffffff;stroke-width:0.08928572;stroke-linecap:butt;stroke-linejoin:miter;stroke-miterlimit:4;stroke-opacity:1;stroke-dasharray:none;stroke-dashoffset:0;marker:none;visibility:visible;display:inline;overflow:visible;enable-background:accumulate"
       d="m -606.63504,349.18972 c 0,-0.17857 -0.0446,-0.22321 -0.22322,-0.22321 -0.17857,0 -0.22321,-0.0446 -0.22321,-0.22322 0,-0.12277 0.043,-0.22321 0.0957,-0.22321 0.16368,0 -0.37897,-0.43453 -1.77009,-1.41742 l -0.64764,-0.45758 -0.93718,0 -0.93718,0 0,-0.22322 c 0,-0.17694 -0.045,-0.22321 -0.21728,-0.22321 -0.17067,0 -0.22335,-0.0527 -0.24554,-0.24554 -0.0198,-0.1725 -0.0857,-0.25372 -0.22148,-0.27306 -0.1582,-0.0225 -0.20423,-0.10752 -0.25391,-0.46875 -0.0536,-0.38971 -0.0858,-0.44122 -0.27552,-0.44122 -0.16964,0 -0.21484,-0.047 -0.21484,-0.22322 0,-0.20833 -0.0298,-0.22321 -0.44643,-0.22321 -0.41667,0 -0.44643,-0.0149 -0.44643,-0.22322 0,-0.20833 -0.0298,-0.22321 -0.44643,-0.22321 -0.41091,0 -0.44642,-0.0169 -0.44642,-0.21293 0,-0.19113 -0.0503,-0.2192 -0.49108,-0.27428 -0.44355,-0.0554 -0.49107,-0.0823 -0.49107,-0.27814 0,-0.17172 -0.0464,-0.21679 -0.22321,-0.21679 -0.17857,0 -0.22322,-0.0446 -0.22322,-0.22322 0,-0.18849 -0.0417,-0.22321 -0.26785,-0.22321 -0.22619,0 -0.26786,-0.0347 -0.26786,-0.22322 0,-0.17857 -0.0446,-0.22321 -0.22321,-0.22321 -0.17625,0 -0.22322,-0.0452 -0.22322,-0.21484 0,-0.19009 -0.0514,-0.2219 -0.44643,-0.27623 l -0.44643,-0.0614 0,-0.43805 c 0,-0.27367 0.039,-0.43805 0.10394,-0.43805 0.0572,0 -0.26478,-0.2913 -0.71543,-0.64732 -0.63199,-0.49929 -0.93177,-0.81578 -1.31085,-1.38393 -0.34006,-0.50965 -0.54603,-0.73661 -0.6685,-0.73661 -0.13918,0 -0.17701,-0.0603 -0.17701,-0.28236 0,-0.29 -0.11213,-0.49117 -1.15727,-2.07625 -0.90394,-1.37093 -0.90859,-1.38026 -1.17216,-2.35289 -0.13665,-0.50427 -0.31129,-1.04281 -0.38809,-1.19675 -0.0768,-0.15395 -0.13963,-0.37359 -0.13963,-0.48811 0,-0.36595 -0.21159,-1.01435 -0.33101,-1.01435 -0.0768,0 -0.11541,-0.13079 -0.11541,-0.39063 0,-0.61439 -0.0979,-0.96762 -0.2814,-1.01561 -0.13849,-0.0362 -0.16503,-0.13364 -0.16503,-0.6058 0,-0.67553 -0.055,-0.84511 -0.27396,-0.84511 -0.15028,0 -0.16508,-0.0804 -0.16025,-0.87053 0.005,-0.76189 0.0321,-0.91209 0.21976,-1.20344 0.11795,-0.1831 0.21445,-0.41413 0.21445,-0.5134 0,-0.0993 0.0554,-0.18048 0.12304,-0.18048 0.0677,0 0.17816,-0.0807 0.24553,-0.17924 0.0957,-0.14002 0.28854,-0.19983 0.88143,-0.27336 0.41741,-0.0518 1.10044,-0.13955 1.51785,-0.19505 0.41741,-0.0555 0.78907,-0.0932 0.8259,-0.0838 0.0368,0.009 0.067,-0.023 0.067,-0.0721 0,-0.0491 0.12054,-0.0893 0.26786,-0.0893 0.20394,0 0.26786,0.0406 0.26786,0.17019 0,0.13652 0.0883,0.18234 0.44642,0.2316 0.39502,0.0543 0.44643,0.0861 0.44643,0.27623 0,0.17918 0.0445,0.21484 0.26786,0.21484 0.22619,0 0.26786,0.0347 0.26786,0.22321 0,0.17857 0.0446,0.22322 0.22321,0.22322 0.17529,0 0.22322,0.0454 0.22322,0.21153 0,0.17507 0.0577,0.22107 0.33482,0.26687 0.18415,0.0304 0.48269,0.0558 0.66343,0.0563 0.27244,8.1e-4 0.33349,0.0353 0.35714,0.20187 0.0249,0.17502 0.0889,0.20437 0.49728,0.22788 0.43046,0.0248 0.46875,0.0448 0.46875,0.24554 0,0.21366 0.016,0.21855 0.71429,0.21855 l 0.71429,0 0,0.66964 c 0,0.61012 0.0159,0.66964 0.17857,0.66964 0.13524,0 0.17861,0.0596 0.17873,0.24554 9e-5,0.19257 0.084,0.2985 0.38883,0.49107 0.48019,0.30336 0.59315,0.30761 0.59315,0.0223 0,-0.18849 0.0417,-0.22321 0.26786,-0.22321 0.22619,0 0.26786,0.0347 0.26786,0.22321 0,0.17857 0.0446,0.22322 0.22321,0.22322 0.17857,0 0.22321,0.0446 0.22321,0.22321 0,0.16369 0.0476,0.22321 0.17858,0.22321 0.13495,0 0.1789,0.06 0.17993,0.24554 7.2e-4,0.13504 0.0309,0.28783 0.067,0.33953 0.12569,0.1801 1.14588,0.84351 1.29715,0.84351 0.0838,0 0.15237,0.0458 0.15237,0.10176 0,0.16949 0.29547,0.33881 0.59647,0.34182 0.22545,0.002 0.28985,0.0442 0.3125,0.20374 0.0183,0.1291 0.10032,0.21109 0.22943,0.22942 0.11049,0.0157 0.20124,0.076 0.20167,0.13393 9.8e-4,0.13208 0.98768,0.77504 1.1894,0.77504 0.082,0 0.15129,0.01 0.15396,0.0223 0.003,0.0123 0.0277,0.35695 0.0557,0.76593 l 0.0509,0.7436 -0.25659,-0.0293 c -0.20463,-0.0234 -0.26231,-0.079 -0.28484,-0.27485 -0.0266,-0.23086 -0.0546,-0.24554 -0.46875,-0.24554 -0.41034,0 -0.4405,-0.0153 -0.4405,-0.22321 0,-0.17857 -0.0446,-0.22322 -0.22321,-0.22322 -0.12814,0 -0.22322,-0.0515 -0.22322,-0.12082 0,-0.12808 -0.86493,-0.23632 -1.88847,-0.23632 -0.46272,0 -0.52224,0.0204 -0.52224,0.17857 0,0.13096 -0.0595,0.17857 -0.22322,0.17857 -0.17857,0 -0.22321,0.0446 -0.22321,0.22322 0,0.16751 -0.047,0.22321 -0.18825,0.22321 -0.15213,0 -0.17831,0.0396 -0.13645,0.20642 0.11867,0.4728 0.50867,1.22215 0.63607,1.22215 0.0913,0 0.13506,0.0891 0.13506,0.27522 0,0.2712 0.21686,0.8217 0.91157,2.31407 0.19431,0.41741 0.57553,1.25112 0.84716,1.85268 0.27163,0.60156 0.52944,1.09375 0.57293,1.09375 0.0435,0 0.079,0.0824 0.079,0.183 0,0.22954 0.24321,0.70986 0.35944,0.70986 0.0478,0 0.0896,0.13058 0.0929,0.29017 0.003,0.1596 0.15517,0.59152 0.33765,0.95983 0.31238,0.63048 0.35044,0.67121 0.6508,0.69658 l 0.31902,0.0269 0.0799,0.86591 c 0.0734,0.79522 0.096,0.86821 0.27636,0.89387 0.16933,0.0241 0.20011,0.0918 0.22321,0.49107 0.0233,0.4026 0.0531,0.46685 0.22769,0.49166 0.17731,0.0252 0.20089,0.0802 0.20089,0.46875 0,0.40684 0.0165,0.44022 0.21728,0.44022 0.17067,0 0.22335,0.0527 0.24554,0.24553 0.0199,0.1725 0.0857,0.25373 0.22148,0.27306 0.1582,0.0225 0.20423,0.10752 0.25391,0.46875 0.0536,0.38972 0.0858,0.44123 0.27552,0.44123 0.16964,0 0.21484,0.047 0.21484,0.22321 0,0.17857 0.0446,0.22322 0.22321,0.22322 0.17858,0 0.22322,0.0446 0.22322,0.22321 l 0,0.22321 -0.9375,0 -0.9375,0 0,-0.22321 0,0 z"
       id="path4416"
       inkscape:connector-curvature="0" />
  </g>
</svg>
